  0
SECTION
  2
HEADER
  9
$ACADVER
  1
AC1014
  9
$ACADMAINTVER
 70
     9
  9
$DWGCODEPAGE
  3
ANSI_1252
  9
$INSBASE
 10
0.0
 20
0.0
 30
0.0
  9
$EXTMIN
 10
-0.4314929303976314
 20
-2.257776000000001
 30
0.0
  9
$EXTMAX
 10
30.0
 20
10.456848
 30
0.0
  9
$LIMMIN
 10
0.0
 20
0.0
  9
$LIMMAX
 10
12.0
 20
9.0
  9
$ORTHOMODE
 70
     1
  9
$REGENMODE
 70
     1
  9
$FILLMODE
 70
     1
  9
$QTEXTMODE
 70
     0
  9
$MIRRTEXT
 70
     1
  9
$DRAGMODE
 70
     2
  9
$LTSCALE
 40
1.0
  9
$OSMODE
 70
   511
  9
$ATTMODE
 70
     1
  9
$TEXTSIZE
 40
2.5
  9
$TRACEWID
 40
0.05
  9
$TEXTSTYLE
  7
STANDARD
  9
$CLAYER
  8
T
  9
$CELTYPE
  6
BYBLOCK
  9
$CECOLOR
 62
   256
  9
$CELTSCALE
 40
1.0
  9
$DELOBJ
 70
     1
  9
$DISPSILH
 70
     0
  9
$DIMSCALE
 40
1.0
  9
$DIMASZ
 40
0.18
  9
$DIMEXO
 40
0.0625
  9
$DIMDLI
 40
0.38
  9
$DIMRND
 40
0.0
  9
$DIMDLE
 40
0.0
  9
$DIMEXE
 40
0.18
  9
$DIMTP
 40
0.0
  9
$DIMTM
 40
0.0
  9
$DIMTXT
 40
0.18
  9
$DIMCEN
 40
0.09
  9
$DIMTSZ
 40
0.0
  9
$DIMTOL
 70
     0
  9
$DIMLIM
 70
     0
  9
$DIMTIH
 70
     1
  9
$DIMTOH
 70
     1
  9
$DIMSE1
 70
     0
  9
$DIMSE2
 70
     0
  9
$DIMTAD
 70
     0
  9
$DIMZIN
 70
     0
  9
$DIMBLK
  1

  9
$DIMASO
 70
     1
  9
$DIMSHO
 70
     1
  9
$DIMPOST
  1

  9
$DIMAPOST
  1

  9
$DIMALT
 70
     0
  9
$DIMALTD
 70
     2
  9
$DIMALTF
 40
25.4
  9
$DIMLFAC
 40
1.0
  9
$DIMTOFL
 70
     0
  9
$DIMTVP
 40
0.0
  9
$DIMTIX
 70
     0
  9
$DIMSOXD
 70
     0
  9
$DIMSAH
 70
     0
  9
$DIMBLK1
  1

  9
$DIMBLK2
  1

  9
$DIMSTYLE
  2
ISO-25
  9
$DIMCLRD
 70
     0
  9
$DIMCLRE
 70
     0
  9
$DIMCLRT
 70
     0
  9
$DIMTFAC
 40
1.0
  9
$DIMGAP
 40
0.09
  9
$DIMJUST
 70
     0
  9
$DIMSD1
 70
     0
  9
$DIMSD2
 70
     0
  9
$DIMTOLJ
 70
     1
  9
$DIMTZIN
 70
     0
  9
$DIMALTZ
 70
     0
  9
$DIMALTTZ
 70
     0
  9
$DIMFIT
 70
     5
  9
$DIMUPT
 70
     0
  9
$DIMUNIT
 70
     2
  9
$DIMDEC
 70
     4
  9
$DIMTDEC
 70
     4
  9
$DIMALTU
 70
     2
  9
$DIMALTTD
 70
     2
  9
$DIMTXSTY
  7
STANDARD
  9
$DIMAUNIT
 70
     0
  9
$LUNITS
 70
     2
  9
$LUPREC
 70
     4
  9
$SKETCHINC
 40
0.1
  9
$FILLETRAD
 40
0.5
  9
$AUNITS
 70
     0
  9
$AUPREC
 70
     0
  9
$MENU
  1
.
  9
$ELEVATION
 40
0.0
  9
$PELEVATION
 40
0.0
  9
$THICKNESS
 40
0.0
  9
$LIMCHECK
 70
     0
  9
$CHAMFERA
 40
0.0
  9
$CHAMFERB
 40
0.0
  9
$CHAMFERC
 40
0.0
  9
$CHAMFERD
 40
0.0
  9
$SKPOLY
 70
     0
  9
$TDCREATE
 40
2447893.083333322
  9
$TDUPDATE
 40
2457688.805753368
  9
$TDINDWG
 40
0.0317960532
  9
$TDUSRTIMER
 40
2457688.706009768
  9
$USRTIMER
 70
     1
  9
$ANGBASE
 50
0.0
  9
$ANGDIR
 70
     0
  9
$PDMODE
 70
     0
  9
$PDSIZE
 40
0.0
  9
$PLINEWID
 40
0.0
  9
$COORDS
 70
     1
  9
$SPLFRAME
 70
     0
  9
$SPLINETYPE
 70
     6
  9
$SPLINESEGS
 70
     8
  9
$ATTDIA
 70
     0
  9
$ATTREQ
 70
     1
  9
$HANDLING
 70
     1
  9
$HANDSEED
  5
10305
  9
$SURFTAB1
 70
     6
  9
$SURFTAB2
 70
     6
  9
$SURFTYPE
 70
     6
  9
$SURFU
 70
     6
  9
$SURFV
 70
     6
  9
$UCSNAME
  2

  9
$UCSORG
 10
0.0
 20
0.0
 30
0.0
  9
$UCSXDIR
 10
1.0
 20
0.0
 30
0.0
  9
$UCSYDIR
 10
0.0
 20
1.0
 30
0.0
  9
$PUCSNAME
  2

  9
$PUCSORG
 10
0.0
 20
0.0
 30
0.0
  9
$PUCSXDIR
 10
1.0
 20
0.0
 30
0.0
  9
$PUCSYDIR
 10
0.0
 20
1.0
 30
0.0
  9
$USERI1
 70
     0
  9
$USERI2
 70
     0
  9
$USERI3
 70
     0
  9
$USERI4
 70
     0
  9
$USERI5
 70
     0
  9
$USERR1
 40
0.0
  9
$USERR2
 40
0.0
  9
$USERR3
 40
0.0
  9
$USERR4
 40
0.0
  9
$USERR5
 40
0.0
  9
$WORLDVIEW
 70
     1
  9
$SHADEDGE
 70
     3
  9
$SHADEDIF
 70
    70
  9
$TILEMODE
 70
     1
  9
$MAXACTVP
 70
    64
  9
$PINSBASE
 10
0.0
 20
0.0
 30
0.0
  9
$PLIMCHECK
 70
     0
  9
$PEXTMIN
 10
1.000000000000000E+20
 20
1.000000000000000E+20
 30
1.000000000000000E+20
  9
$PEXTMAX
 10
-1.000000000000000E+20
 20
-1.000000000000000E+20
 30
-1.000000000000000E+20
  9
$PLIMMIN
 10
0.0
 20
0.0
  9
$PLIMMAX
 10
0.0
 20
0.0
  9
$UNITMODE
 70
     0
  9
$VISRETAIN
 70
     1
  9
$PLINEGEN
 70
     0
  9
$PSLTSCALE
 70
     1
  9
$TREEDEPTH
 70
  3020
  9
$PICKSTYLE
 70
     0
  9
$CMLSTYLE
  2

  9
$CMLJUST
 70
     0
  9
$CMLSCALE
 40
1.0
  9
$PROXYGRAPHICS
 70
     1
  9
$MEASUREMENT
 70
     1
  0
ENDSEC
  0
SECTION
  2
CLASSES
  0
CLASS
  1
SCALE
  2
AcDbScale
  3
ObjectDBX Classes
 90
     1153
280
     0
281
     0
  0
CLASS
  1
VISUALSTYLE
  2
AcDbVisualStyle
  3
ObjectDBX Classes
 90
     4095
280
     0
281
     0
  0
CLASS
  1
MATERIAL
  2
AcDbMaterial
  3
ObjectDBX Classes
 90
     1153
280
     0
281
     0
  0
CLASS
  1
TABLESTYLE
  2
AcDbTableStyle
  3
ObjectDBX Classes
 90
     4095
280
     0
281
     0
  0
CLASS
  1
MLEADERSTYLE
  2
AcDbMLeaderStyle
  3
ACDB_MLEADERSTYLE_CLASS
 90
     4095
280
     0
281
     0
  0
CLASS
  1
SUN
  2
AcDbSun
  3
SCENEOE
 90
     1153
280
     0
281
     0
  0
CLASS
  1
RASTERVARIABLES
  2
AcDbRasterVariables
  3
ISM
 90
        0
280
     0
281
     0
  0
CLASS
  1
ACDBDICTIONARYWDFLT
  2
AcDbDictionaryWithDefault
  3
ObjectDBX Classes
 90
        0
280
     0
281
     0
  0
CLASS
  1
SORTENTSTABLE
  2
AcDbSortentsTable
  3
ObjectDBX Classes
 90
        0
280
     0
281
     0
  0
CLASS
  1
DICTIONARYVAR
  2
AcDbDictionaryVar
  3
ObjectDBX Classes
 90
        0
280
     0
281
     0
  0
CLASS
  1
XRECORD
  2
AcDbXrecord
  3
ObjectDBX Classes
 90
        0
280
     0
281
     0
  0
CLASS
  1
LWPOLYLINE
  2
AcDbPolyline
  3
ObjectDBX Classes
 90
        0
280
     0
281
     1
  0
CLASS
  1
HATCH
  2
AcDbHatch
  3
ObjectDBX Classes
 90
        0
280
     0
281
     1
  0
ENDSEC
  0
SECTION
  2
TABLES
  0
TABLE
  2
VPORT
  5
8
330
0
100
AcDbSymbolTable
 70
     1
  0
VPORT
  5
2E
330
8
100
AcDbSymbolTableRecord
100
AcDbViewportTableRecord
  2
*ACTIVE
 70
     0
 10
0.0
 20
0.0
 11
1.0
 21
1.0
 12
10.17383406256168
 22
2.794630071879178
 13
0.0
 23
0.0
 14
10.0
 24
10.0
 15
10.0
 25
10.0
 16
0.0
 26
0.0
 36
1.0
 17
0.0
 27
0.0
 37
0.0
 40
16.21114560000002
 41
3.594736842105263
 42
50.0
 43
0.0
 44
0.0
 50
0.0
 51
0.0
 71
    16
 72
   100
 73
     1
 74
     3
 75
     0
 76
     0
 77
     0
 78
     0
  0
ENDTAB
  0
TABLE
  2
LTYPE
  5
5
330
0
100
AcDbSymbolTable
 70
     1
  0
LTYPE
  5
14
330
5
100
AcDbSymbolTableRecord
100
AcDbLinetypeTableRecord
  2
BYBLOCK
 70
     0
  3

 72
    65
 73
     0
 40
0.0
  0
LTYPE
  5
15
330
5
100
AcDbSymbolTableRecord
100
AcDbLinetypeTableRecord
  2
BYLAYER
 70
     0
  3

 72
    65
 73
     0
 40
0.0
  0
LTYPE
  5
16
330
5
100
AcDbSymbolTableRecord
100
AcDbLinetypeTableRecord
  2
CONTINUOUS
 70
     0
  3
Solid line
 72
    65
 73
     0
 40
0.0
  0
ENDTAB
  0
TABLE
  2
LAYER
  5
2
102
{ACAD_XDICTIONARY
360
100A9
102
}
330
0
100
AcDbSymbolTable
 70
    93
  0
LAYER
  5
50
330
2
100
AcDbSymbolTableRecord
100
AcDbLayerTableRecord
  2
0
 70
     0
 62
     7
  6
CONTINUOUS
  0
LAYER
  5
51
330
2
100
AcDbSymbolTableRecord
100
AcDbLayerTableRecord
  2
A
 70
     0
 62
     7
  6
CONTINUOUS
  0
LAYER
  5
52
330
2
100
AcDbSymbolTableRecord
100
AcDbLayerTableRecord
  2
B
 70
     0
 62
     7
  6
CONTINUOUS
  0
LAYER
  5
53
330
2
100
AcDbSymbolTableRecord
100
AcDbLayerTableRecord
  2
C
 70
     0
 62
     7
  6
CONTINUOUS
  0
LAYER
  5
54
330
2
100
AcDbSymbolTableRecord
100
AcDbLayerTableRecord
  2
D
 70
     0
 62
     7
  6
CONTINUOUS
  0
LAYER
  5
55
330
2
100
AcDbSymbolTableRecord
100
AcDbLayerTableRecord
  2
E
 70
     0
 62
     7
  6
CONTINUOUS
  0
LAYER
  5
56
330
2
100
AcDbSymbolTableRecord
100
AcDbLayerTableRecord
  2
F
 70
     0
 62
     7
  6
CONTINUOUS
  0
LAYER
  5
57
330
2
100
AcDbSymbolTableRecord
100
AcDbLayerTableRecord
  2
G
 70
     0
 62
     7
  6
CONTINUOUS
  0
LAYER
  5
58
330
2
100
AcDbSymbolTableRecord
100
AcDbLayerTableRecord
  2
H
 70
     0
 62
     7
  6
CONTINUOUS
  0
LAYER
  5
59
330
2
100
AcDbSymbolTableRecord
100
AcDbLayerTableRecord
  2
I
 70
     0
 62
     7
  6
CONTINUOUS
  0
LAYER
  5
5A
330
2
100
AcDbSymbolTableRecord
100
AcDbLayerTableRecord
  2
J
 70
     0
 62
     7
  6
CONTINUOUS
  0
LAYER
  5
5B
330
2
100
AcDbSymbolTableRecord
100
AcDbLayerTableRecord
  2
K
 70
     0
 62
     7
  6
CONTINUOUS
  0
LAYER
  5
5C
330
2
100
AcDbSymbolTableRecord
100
AcDbLayerTableRecord
  2
L
 70
     0
 62
     7
  6
CONTINUOUS
  0
LAYER
  5
5D
330
2
100
AcDbSymbolTableRecord
100
AcDbLayerTableRecord
  2
M
 70
     0
 62
     7
  6
CONTINUOUS
  0
LAYER
  5
5E
330
2
100
AcDbSymbolTableRecord
100
AcDbLayerTableRecord
  2
N
 70
     0
 62
     7
  6
CONTINUOUS
  0
LAYER
  5
5F
330
2
100
AcDbSymbolTableRecord
100
AcDbLayerTableRecord
  2
O
 70
     0
 62
     7
  6
CONTINUOUS
  0
LAYER
  5
60
330
2
100
AcDbSymbolTableRecord
100
AcDbLayerTableRecord
  2
P
 70
     0
 62
     7
  6
CONTINUOUS
  0
LAYER
  5
61
330
2
100
AcDbSymbolTableRecord
100
AcDbLayerTableRecord
  2
Q
 70
     0
 62
     7
  6
CONTINUOUS
  0
LAYER
  5
62
330
2
100
AcDbSymbolTableRecord
100
AcDbLayerTableRecord
  2
R
 70
     0
 62
     7
  6
CONTINUOUS
  0
LAYER
  5
63
330
2
100
AcDbSymbolTableRecord
100
AcDbLayerTableRecord
  2
S
 70
     0
 62
     7
  6
CONTINUOUS
  0
LAYER
  5
64
330
2
100
AcDbSymbolTableRecord
100
AcDbLayerTableRecord
  2
T
 70
     0
 62
     7
  6
CONTINUOUS
  0
LAYER
  5
65
330
2
100
AcDbSymbolTableRecord
100
AcDbLayerTableRecord
  2
U
 70
     0
 62
     7
  6
CONTINUOUS
  0
LAYER
  5
66
330
2
100
AcDbSymbolTableRecord
100
AcDbLayerTableRecord
  2
V
 70
     0
 62
     7
  6
CONTINUOUS
  0
LAYER
  5
67
330
2
100
AcDbSymbolTableRecord
100
AcDbLayerTableRecord
  2
W
 70
     0
 62
     7
  6
CONTINUOUS
  0
LAYER
  5
68
330
2
100
AcDbSymbolTableRecord
100
AcDbLayerTableRecord
  2
X
 70
     0
 62
     7
  6
CONTINUOUS
  0
LAYER
  5
69
330
2
100
AcDbSymbolTableRecord
100
AcDbLayerTableRecord
  2
Y
 70
     0
 62
     7
  6
CONTINUOUS
  0
LAYER
  5
6A
330
2
100
AcDbSymbolTableRecord
100
AcDbLayerTableRecord
  2
Z
 70
     0
 62
     7
  6
CONTINUOUS
  0
LAYER
  5
6B
330
2
100
AcDbSymbolTableRecord
100
AcDbLayerTableRecord
  2
1
 70
     0
 62
     7
  6
CONTINUOUS
  0
LAYER
  5
6C
330
2
100
AcDbSymbolTableRecord
100
AcDbLayerTableRecord
  2
2
 70
     0
 62
     7
  6
CONTINUOUS
  0
LAYER
  5
6D
330
2
100
AcDbSymbolTableRecord
100
AcDbLayerTableRecord
  2
3
 70
     0
 62
     7
  6
CONTINUOUS
  0
LAYER
  5
6E
330
2
100
AcDbSymbolTableRecord
100
AcDbLayerTableRecord
  2
4
 70
     0
 62
     7
  6
CONTINUOUS
  0
LAYER
  5
6F
330
2
100
AcDbSymbolTableRecord
100
AcDbLayerTableRecord
  2
5
 70
     0
 62
     7
  6
CONTINUOUS
  0
LAYER
  5
70
330
2
100
AcDbSymbolTableRecord
100
AcDbLayerTableRecord
  2
6
 70
     0
 62
     7
  6
CONTINUOUS
  0
LAYER
  5
71
330
2
100
AcDbSymbolTableRecord
100
AcDbLayerTableRecord
  2
7
 70
     0
 62
     7
  6
CONTINUOUS
  0
LAYER
  5
72
330
2
100
AcDbSymbolTableRecord
100
AcDbLayerTableRecord
  2
8
 70
     0
 62
     7
  6
CONTINUOUS
  0
LAYER
  5
73
330
2
100
AcDbSymbolTableRecord
100
AcDbLayerTableRecord
  2
9
 70
     0
 62
     7
  6
CONTINUOUS
  0
LAYER
  5
74
330
2
100
AcDbSymbolTableRecord
100
AcDbLayerTableRecord
  2
A_
 70
     0
 62
     7
  6
CONTINUOUS
  0
LAYER
  5
75
330
2
100
AcDbSymbolTableRecord
100
AcDbLayerTableRecord
  2
B_
 70
     0
 62
     7
  6
CONTINUOUS
  0
LAYER
  5
76
330
2
100
AcDbSymbolTableRecord
100
AcDbLayerTableRecord
  2
C_
 70
     0
 62
     7
  6
CONTINUOUS
  0
LAYER
  5
77
330
2
100
AcDbSymbolTableRecord
100
AcDbLayerTableRecord
  2
D_
 70
     0
 62
     7
  6
CONTINUOUS
  0
LAYER
  5
78
330
2
100
AcDbSymbolTableRecord
100
AcDbLayerTableRecord
  2
E_
 70
     0
 62
     7
  6
CONTINUOUS
  0
LAYER
  5
79
330
2
100
AcDbSymbolTableRecord
100
AcDbLayerTableRecord
  2
F_
 70
     0
 62
     7
  6
CONTINUOUS
  0
LAYER
  5
7A
330
2
100
AcDbSymbolTableRecord
100
AcDbLayerTableRecord
  2
G_
 70
     0
 62
     7
  6
CONTINUOUS
  0
LAYER
  5
7B
330
2
100
AcDbSymbolTableRecord
100
AcDbLayerTableRecord
  2
H_
 70
     0
 62
     7
  6
CONTINUOUS
  0
LAYER
  5
7C
330
2
100
AcDbSymbolTableRecord
100
AcDbLayerTableRecord
  2
I_
 70
     0
 62
     7
  6
CONTINUOUS
  0
LAYER
  5
7D
330
2
100
AcDbSymbolTableRecord
100
AcDbLayerTableRecord
  2
J_
 70
     0
 62
     7
  6
CONTINUOUS
  0
LAYER
  5
7E
330
2
100
AcDbSymbolTableRecord
100
AcDbLayerTableRecord
  2
K_
 70
     0
 62
     7
  6
CONTINUOUS
  0
LAYER
  5
7F
330
2
100
AcDbSymbolTableRecord
100
AcDbLayerTableRecord
  2
L_
 70
     0
 62
     7
  6
CONTINUOUS
  0
LAYER
  5
80
330
2
100
AcDbSymbolTableRecord
100
AcDbLayerTableRecord
  2
M_
 70
     0
 62
     7
  6
CONTINUOUS
  0
LAYER
  5
81
330
2
100
AcDbSymbolTableRecord
100
AcDbLayerTableRecord
  2
N_
 70
     0
 62
     7
  6
CONTINUOUS
  0
LAYER
  5
82
330
2
100
AcDbSymbolTableRecord
100
AcDbLayerTableRecord
  2
O_
 70
     0
 62
     7
  6
CONTINUOUS
  0
LAYER
  5
83
330
2
100
AcDbSymbolTableRecord
100
AcDbLayerTableRecord
  2
P_
 70
     0
 62
     7
  6
CONTINUOUS
  0
LAYER
  5
84
330
2
100
AcDbSymbolTableRecord
100
AcDbLayerTableRecord
  2
Q_
 70
     0
 62
     7
  6
CONTINUOUS
  0
LAYER
  5
85
330
2
100
AcDbSymbolTableRecord
100
AcDbLayerTableRecord
  2
R_
 70
     0
 62
     7
  6
CONTINUOUS
  0
LAYER
  5
86
330
2
100
AcDbSymbolTableRecord
100
AcDbLayerTableRecord
  2
S_
 70
     0
 62
     7
  6
CONTINUOUS
  0
LAYER
  5
87
330
2
100
AcDbSymbolTableRecord
100
AcDbLayerTableRecord
  2
T_
 70
     0
 62
     7
  6
CONTINUOUS
  0
LAYER
  5
88
330
2
100
AcDbSymbolTableRecord
100
AcDbLayerTableRecord
  2
U_
 70
     0
 62
     7
  6
CONTINUOUS
  0
LAYER
  5
89
330
2
100
AcDbSymbolTableRecord
100
AcDbLayerTableRecord
  2
V_
 70
     0
 62
     7
  6
CONTINUOUS
  0
LAYER
  5
8A
330
2
100
AcDbSymbolTableRecord
100
AcDbLayerTableRecord
  2
W_
 70
     0
 62
     7
  6
CONTINUOUS
  0
LAYER
  5
8B
330
2
100
AcDbSymbolTableRecord
100
AcDbLayerTableRecord
  2
X_
 70
     0
 62
     7
  6
CONTINUOUS
  0
LAYER
  5
8C
330
2
100
AcDbSymbolTableRecord
100
AcDbLayerTableRecord
  2
Y_
 70
     0
 62
     7
  6
CONTINUOUS
  0
LAYER
  5
8D
330
2
100
AcDbSymbolTableRecord
100
AcDbLayerTableRecord
  2
Z_
 70
     0
 62
     7
  6
CONTINUOUS
  0
LAYER
  5
8E
330
2
100
AcDbSymbolTableRecord
100
AcDbLayerTableRecord
  2
_0
 70
     0
 62
     7
  6
CONTINUOUS
  0
LAYER
  5
8F
330
2
100
AcDbSymbolTableRecord
100
AcDbLayerTableRecord
  2
_1
 70
     0
 62
     7
  6
CONTINUOUS
  0
LAYER
  5
90
330
2
100
AcDbSymbolTableRecord
100
AcDbLayerTableRecord
  2
_2
 70
     0
 62
     7
  6
CONTINUOUS
  0
LAYER
  5
91
330
2
100
AcDbSymbolTableRecord
100
AcDbLayerTableRecord
  2
_3
 70
     0
 62
     7
  6
CONTINUOUS
  0
LAYER
  5
92
330
2
100
AcDbSymbolTableRecord
100
AcDbLayerTableRecord
  2
$
 70
     0
 62
     7
  6
CONTINUOUS
  0
LAYER
  5
93
330
2
100
AcDbSymbolTableRecord
100
AcDbLayerTableRecord
  2
_4
 70
     0
 62
     7
  6
CONTINUOUS
  0
LAYER
  5
94
330
2
100
AcDbSymbolTableRecord
100
AcDbLayerTableRecord
  2
_5
 70
     0
 62
     7
  6
CONTINUOUS
  0
LAYER
  5
95
330
2
100
AcDbSymbolTableRecord
100
AcDbLayerTableRecord
  2
_6
 70
     0
 62
     7
  6
CONTINUOUS
  0
LAYER
  5
97
330
2
100
AcDbSymbolTableRecord
100
AcDbLayerTableRecord
  2
_7
 70
     0
 62
     7
  6
CONTINUOUS
  0
LAYER
  5
98
330
2
100
AcDbSymbolTableRecord
100
AcDbLayerTableRecord
  2
_8
 70
     0
 62
     7
  6
CONTINUOUS
  0
LAYER
  5
99
330
2
100
AcDbSymbolTableRecord
100
AcDbLayerTableRecord
  2
_
 70
     0
 62
     7
  6
CONTINUOUS
  0
LAYER
  5
9A
330
2
100
AcDbSymbolTableRecord
100
AcDbLayerTableRecord
  2
_9
 70
     0
 62
     7
  6
CONTINUOUS
  0
LAYER
  5
9B
330
2
100
AcDbSymbolTableRecord
100
AcDbLayerTableRecord
  2
-
 70
     0
 62
     7
  6
CONTINUOUS
  0
LAYER
  5
9C
330
2
100
AcDbSymbolTableRecord
100
AcDbLayerTableRecord
  2
_A
 70
     0
 62
     7
  6
CONTINUOUS
  0
LAYER
  5
9D
330
2
100
AcDbSymbolTableRecord
100
AcDbLayerTableRecord
  2
_B
 70
     0
 62
     7
  6
CONTINUOUS
  0
LAYER
  5
9E
330
2
100
AcDbSymbolTableRecord
100
AcDbLayerTableRecord
  2
_C
 70
     0
 62
     7
  6
CONTINUOUS
  0
LAYER
  5
9F
330
2
100
AcDbSymbolTableRecord
100
AcDbLayerTableRecord
  2
_D
 70
     0
 62
     7
  6
CONTINUOUS
  0
LAYER
  5
A0
330
2
100
AcDbSymbolTableRecord
100
AcDbLayerTableRecord
  2
_E
 70
     0
 62
     7
  6
CONTINUOUS
  0
LAYER
  5
A1
330
2
100
AcDbSymbolTableRecord
100
AcDbLayerTableRecord
  2
_F
 70
     0
 62
     7
  6
CONTINUOUS
  0
LAYER
  5
A2
330
2
100
AcDbSymbolTableRecord
100
AcDbLayerTableRecord
  2
_G
 70
     0
 62
     7
  6
CONTINUOUS
  0
LAYER
  5
A3
330
2
100
AcDbSymbolTableRecord
100
AcDbLayerTableRecord
  2
_H
 70
     0
 62
     7
  6
CONTINUOUS
  0
LAYER
  5
A4
330
2
100
AcDbSymbolTableRecord
100
AcDbLayerTableRecord
  2
_I
 70
     0
 62
     7
  6
CONTINUOUS
  0
LAYER
  5
A5
330
2
100
AcDbSymbolTableRecord
100
AcDbLayerTableRecord
  2
_J
 70
     0
 62
     7
  6
CONTINUOUS
  0
LAYER
  5
A6
330
2
100
AcDbSymbolTableRecord
100
AcDbLayerTableRecord
  2
_K
 70
     0
 62
     7
  6
CONTINUOUS
  0
LAYER
  5
A7
330
2
100
AcDbSymbolTableRecord
100
AcDbLayerTableRecord
  2
_L
 70
     0
 62
     7
  6
CONTINUOUS
  0
LAYER
  5
A8
330
2
100
AcDbSymbolTableRecord
100
AcDbLayerTableRecord
  2
_M
 70
     0
 62
     7
  6
CONTINUOUS
  0
LAYER
  5
A9
330
2
100
AcDbSymbolTableRecord
100
AcDbLayerTableRecord
  2
_N
 70
     0
 62
     7
  6
CONTINUOUS
  0
LAYER
  5
AA
330
2
100
AcDbSymbolTableRecord
100
AcDbLayerTableRecord
  2
_O
 70
     0
 62
     7
  6
CONTINUOUS
  0
LAYER
  5
AB
330
2
100
AcDbSymbolTableRecord
100
AcDbLayerTableRecord
  2
_P
 70
     0
 62
     7
  6
CONTINUOUS
  0
LAYER
  5
AC
330
2
100
AcDbSymbolTableRecord
100
AcDbLayerTableRecord
  2
|
 70
     0
 62
     7
  6
CONTINUOUS
  0
LAYER
  5
1004C
330
2
100
AcDbSymbolTableRecord
100
AcDbLayerTableRecord
  2
LETTERS
 70
     0
 62
     1
  6
CONTINUOUS
1001
ACAECLAYERSTANDARD
1000

1000

1001
ACCMTRANSPARENCY
1071
        0
  0
ENDTAB
  0
TABLE
  2
STYLE
  5
3
330
0
100
AcDbSymbolTable
 70
     1
  0
STYLE
  5
11
330
3
100
AcDbSymbolTableRecord
100
AcDbTextStyleTableRecord
  2
STANDARD
 70
     0
 40
0.0
 41
1.0
 50
0.0
 71
     0
 42
2.5
  3
txt
  4

  0
ENDTAB
  0
TABLE
  2
VIEW
  5
6
330
0
100
AcDbSymbolTable
 70
     0
  0
ENDTAB
  0
TABLE
  2
UCS
  5
7
330
0
100
AcDbSymbolTable
 70
     0
  0
ENDTAB
  0
TABLE
  2
APPID
  5
9
330
0
100
AcDbSymbolTable
 70
     5
  0
APPID
  5
12
330
9
100
AcDbSymbolTableRecord
100
AcDbRegAppTableRecord
  2
ACAD
 70
     0
  0
APPID
  5
10050
330
9
100
AcDbSymbolTableRecord
100
AcDbRegAppTableRecord
  2
ACAECLAYERSTANDARD
 70
     0
  0
APPID
  5
10051
330
9
100
AcDbSymbolTableRecord
100
AcDbRegAppTableRecord
  2
ACCMTRANSPARENCY
 70
     0
  0
APPID
  5
10054
330
9
100
AcDbSymbolTableRecord
100
AcDbRegAppTableRecord
  2
ACAD_NAV_VCDISPLAY
 70
     0
  0
APPID
  5
10055
330
9
100
AcDbSymbolTableRecord
100
AcDbRegAppTableRecord
  2
ACAD_PSEXT
 70
     0
  0
ENDTAB
  0
TABLE
  2
DIMSTYLE
  5
A
330
0
100
AcDbSymbolTable
 70
     2
  0
DIMSTYLE
105
27
330
A
100
AcDbSymbolTableRecord
100
AcDbDimStyleTableRecord
  2
ISO-25
 70
     0
  3

  4

  5

  6

  7

 40
1.0
 41
2.5
 42
0.625
 43
3.75
 44
1.25
 45
0.0
 46
0.0
 47
0.0
 48
0.0
140
2.5
141
2.5
142
0.0
143
0.03937007874016
144
1.0
145
0.0
146
1.0
147
0.625
 71
     0
 72
     0
 73
     0
 74
     0
 75
     0
 76
     0
 77
     1
 78
     8
170
     0
171
     3
172
     1
173
     0
174
     0
175
     0
176
     0
177
     0
178
     0
270
     2
271
     2
272
     2
273
     2
274
     3
340
11
275
     0
280
     0
281
     0
282
     0
283
     0
284
     8
285
     0
286
     0
287
     3
288
     0
  0
DIMSTYLE
105
10052
330
A
100
AcDbSymbolTableRecord
100
AcDbDimStyleTableRecord
  2
STANDARD
 70
     0
  3

  4

  5

  6

  7

 40
1.0
 41
0.18
 42
0.0625
 43
0.38
 44
0.18
 45
0.0
 46
0.0
 47
0.0
 48
0.0
140
0.18
141
0.09
142
0.0
143
25.4
144
1.0
145
0.0
146
1.0
147
0.09
 71
     0
 72
     0
 73
     1
 74
     1
 75
     0
 76
     0
 77
     0
 78
     0
170
     0
171
     2
172
     0
173
     0
174
     0
175
     0
176
     0
177
     0
178
     0
270
     2
271
     4
272
     4
273
     2
274
     2
340
11
275
     0
280
     0
281
     0
282
     0
283
     1
284
     0
285
     0
286
     0
287
     3
288
     0
  0
ENDTAB
  0
TABLE
  2
BLOCK_RECORD
  5
1
330
0
100
AcDbSymbolTable
 70
     0
  0
BLOCK_RECORD
  5
1F
330
1
100
AcDbSymbolTableRecord
100
AcDbBlockTableRecord
  2
*MODEL_SPACE
  0
BLOCK_RECORD
  5
1B
330
1
100
AcDbSymbolTableRecord
100
AcDbBlockTableRecord
  2
*PAPER_SPACE
  0
ENDTAB
  0
ENDSEC
  0
SECTION
  2
BLOCKS
  0
BLOCK
  5
20
330
1F
100
AcDbEntity
  8
0
100
AcDbBlockBegin
  2
*MODEL_SPACE
 70
     0
 10
0.0
 20
0.0
 30
0.0
  3
*MODEL_SPACE
  1

  0
ENDBLK
  5
21
330
1F
100
AcDbEntity
  8
0
100
AcDbBlockEnd
  0
BLOCK
  5
1C
330
1B
100
AcDbEntity
 67
     1
  8
0
100
AcDbBlockBegin
  2
*PAPER_SPACE
 70
     0
 10
0.0
 20
0.0
 30
0.0
  3
*PAPER_SPACE
  1

  0
ENDBLK
  5
1D
330
1B
100
AcDbEntity
 67
     1
  8
0
100
AcDbBlockEnd
  0
ENDSEC
  0
SECTION
  2
ENTITIES
  0
LWPOLYLINE
  5
132
330
1F
100
AcDbEntity
  8
A_
 62
     7
100
AcDbPolyline
 90
       28
 70
     0
 43
0.0
 10
4.156446
 20
0.854655
 10
3.095356
 20
0.193211
 10
2.001194
 20
0.000284
 10
0.518425
 20
0.471566
 10
0.000282
 20
1.675978
 10
0.195964
 20
2.461459
 10
0.708594
 20
3.031971
 10
1.422418
 20
3.357176
 10
2.304362
 20
3.50602
 10
4.073763
 20
3.847763
 10
4.079275
 20
4.106843
 10
3.798155
 20
4.961214
 10
2.668164
 20
5.297454
 10
1.634635
 20
5.052174
 10
1.141298
 20
4.184002
 10
0.171159
 20
4.316308
 10
0.606619
 20
5.322261
 10
1.483051
 20
5.912077
 10
2.81148
 20
6.118777
 10
4.029666
 20
5.942388
 10
4.718685
 20
5.49865
 10
5.027365
 20
4.823405
 10
5.076975
 20
3.908412
 10
5.076975
 20
2.585496
 10
5.140365
 20
0.835379
 10
5.391167
 20
0.132561
 10
4.354883
 20
0.132561
 10
4.156446
 20
0.854655
  0
LWPOLYLINE
  5
133
330
1F
100
AcDbEntity
  8
A_
 62
     7
100
AcDbPolyline
 90
       11
 70
     0
 43
0.0
 10
4.073763
 20
3.070551
 10
2.45319
 20
2.695732
 10
1.587782
 20
2.497301
 10
1.196419
 20
2.174834
 10
1.058616
 20
1.703551
 10
1.359028
 20
1.042079
 10
2.238216
 20
0.777495
 10
3.257965
 20
1.028306
 10
3.913911
 20
1.714558
 10
4.073763
 20
2.706738
 10
4.073763
 20
3.070551
  0
LWPOLYLINE
  5
134
330
1F
100
AcDbEntity
  8
B_
 62
     7
100
AcDbPolyline
 90
       14
 70
     0
 43
0.0
 10
0.920812
 20
0.132561
 10
0.000282
 20
0.132561
 10
0.000282
 20
8.213402
 10
0.99247
 20
8.213402
 10
0.99247
 20
5.33053
 10
2.596506
 20
6.118777
 10
3.619011
 20
5.901042
 10
4.412761
 20
5.289184
 10
4.900586
 20
4.33835
 10
5.076975
 20
3.14771
 10
4.332834
 20
0.821607
 10
2.546897
 20
0.000284
 10
0.920812
 20
0.86569
 10
0.920812
 20
0.132561
  0
LWPOLYLINE
  5
135
330
1F
100
AcDbEntity
  8
B_
 62
     7
100
AcDbPolyline
 90
        9
 70
     0
 43
0.0
 10
0.909787
 20
3.103627
 10
1.196419
 20
1.58228
 10
2.464214
 20
0.816075
 10
3.588694
 20
1.381084
 10
4.062739
 20
3.065048
 10
3.607986
 20
4.75728
 10
2.508312
 20
5.302985
 10
1.383832
 20
4.737976
 10
0.909787
 20
3.103627
  0
LWPOLYLINE
  5
136
330
1F
100
AcDbEntity
  8
C_
 62
     7
100
AcDbPolyline
 90
       20
 70
     0
 43
0.0
 10
4.123372
 20
2.276801
 10
5.099023
 20
2.150027
 10
4.280469
 20
0.570796
 10
2.662652
 20
0.000284
 10
0.730642
 20
0.785764
 10
0.000282
 20
3.037474
 10
0.314475
 20
4.696631
 10
1.270833
 20
5.763233
 10
2.668164
 20
6.118777
 10
4.228103
 20
5.636459
 10
5.005317
 20
4.266693
 10
4.04069
 20
4.117849
 10
3.552865
 20
5.005325
 10
2.706749
 20
5.302985
 10
1.488563
 20
4.765549
 10
1.020031
 20
3.065048
 10
1.472027
 20
1.350773
 10
2.651628
 20
0.816075
 10
3.627279
 20
1.174384
 10
4.123372
 20
2.276801
  0
LWPOLYLINE
  5
137
330
1F
100
AcDbEntity
  8
D_
 62
     7
100
AcDbPolyline
 90
       15
 70
     0
 43
0.0
 10
4.156446
 20
0.132561
 10
4.156446
 20
0.871193
 10
2.519336
 20
0.000284
 10
1.232248
 20
0.386138
 10
0.322743
 20
1.463747
 10
0.000282
 20
3.054013
 10
0.292426
 20
4.644278
 10
1.168859
 20
5.738426
 10
2.475239
 20
6.118777
 10
3.417817
 20
5.895539
 10
4.0903
 20
5.313992
 10
4.0903
 20
8.213402
 10
5.076975
 20
8.213402
 10
5.076975
 20
0.132561
 10
4.156446
 20
0.132561
  0
LWPOLYLINE
  5
138
330
1F
100
AcDbEntity
  8
D_
 62
     7
100
AcDbPolyline
 90
        9
 70
     0
 43
0.0
 10
1.020031
 20
3.054013
 10
1.494076
 20
1.372815
 10
2.613043
 20
0.816075
 10
3.718229
 20
1.348008
 10
4.172982
 20
2.971322
 10
3.709961
 20
4.73521
 10
2.568945
 20
5.297454
 10
1.463759
 20
4.75728
 10
1.020031
 20
3.054013
  0
LWPOLYLINE
  5
139
330
1F
100
AcDbEntity
  8
E_
 62
     7
100
AcDbPolyline
 90
       16
 70
     0
 43
0.0
 10
4.338347
 20
2.017721
 10
5.363607
 20
1.890947
 10
4.465126
 20
0.496374
 10
2.789432
 20
0.000284
 10
0.752691
 20
0.791268
 10
0.000282
 20
3.00993
 10
0.760959
 20
5.302985
 10
2.73431
 20
6.118777
 10
4.652539
 20
5.319523
 10
5.39668
 20
3.070551
 10
5.391168
 20
2.805968
 10
1.025543
 20
2.805968
 10
1.571246
 20
1.328704
 10
2.794944
 20
0.816075
 10
3.726498
 20
1.1027
 10
4.338347
 20
2.017721
  0
LWPOLYLINE
  5
13A
330
1F
100
AcDbEntity
  8
E_
 62
     7
100
AcDbPolyline
 90
        6
 70
     0
 43
0.0
 10
1.080664
 20
3.621759
 10
4.349371
 20
3.621759
 10
3.974544
 20
4.729707
 10
2.745334
 20
5.302985
 10
1.59605
 20
4.845475
 10
1.080664
 20
3.621759
  0
LWPOLYLINE
  5
13B
330
1F
100
AcDbEntity
  8
F_
 62
     7
100
AcDbPolyline
 90
       20
 70
     0
 43
0.0
 10
2.287543
 20
0.000288
 10
2.287543
 20
5.08249
 10
1.411111
 20
5.08249
 10
1.411111
 20
5.854198
 10
2.287543
 20
5.854198
 10
2.287543
 20
6.477063
 10
2.392274
 20
7.353504
 10
2.896636
 20
7.979134
 10
3.908116
 20
8.21891
 10
4.834158
 20
8.119681
 10
4.68533
 20
7.254274
 10
4.101042
 20
7.309392
 10
3.461632
 20
7.116465
 10
3.274219
 20
6.394372
 10
3.274219
 20
5.854198
 10
4.415234
 20
5.854198
 10
4.415234
 20
5.08249
 10
3.274219
 20
5.08249
 10
3.274219
 20
0.000288
 10
2.287543
 20
0.000288
  0
LWPOLYLINE
  5
13C
330
1F
100
AcDbEntity
  8
G_
 62
     7
100
AcDbPolyline
 90
       22
 70
     0
 43
0.0
 10
0.19872
 20
-0.367113
 10
1.163346
 20
-0.510426
 10
1.499588
 20
-1.160863
 10
2.508312
 20
-1.436453
 10
3.572157
 20
-1.160863
 10
4.079275
 20
-0.389155
 10
4.150933
 20
0.884147
 10
2.53036
 20
0.11797
 10
0.661741
 20
0.98888
 10
0.000282
 20
3.077973
 10
0.303451
 20
4.624156
 10
1.182639
 20
5.718303
 10
2.535873
 20
6.104158
 10
4.24464
 20
5.266324
 10
4.24464
 20
5.97188
 10
5.159657
 20
5.97188
 10
5.159657
 20
0.91172
 10
4.881294
 20
-1.02582
 10
3.999349
 20
-1.92704
 10
2.513824
 20
-2.257776
 10
0.821593
 20
-1.786494
 10
0.19872
 20
-0.367113
  0
LWPOLYLINE
  5
13D
330
1F
100
AcDbEntity
  8
G_
 62
     7
100
AcDbPolyline
 90
        9
 70
     0
 43
0.0
 10
1.02003
 20
3.149658
 10
1.477539
 20
1.468432
 10
2.624067
 20
0.939265
 10
3.770595
 20
1.465694
 10
4.233616
 20
3.116581
 10
3.756814
 20
4.737158
 10
2.607531
 20
5.282834
 10
1.483051
 20
4.745399
 10
1.02003
 20
3.149658
  0
LWPOLYLINE
  5
13E
330
1F
100
AcDbEntity
  8
H_
 62
     7
100
AcDbPolyline
 90
       18
 70
     0
 43
0.0
 10
0.000282
 20
0.000284
 10
0.000282
 20
8.081096
 10
0.99247
 20
8.081096
 10
0.99247
 20
5.181714
 10
2.745334
 20
5.986471
 10
3.875326
 20
5.730157
 10
4.561589
 20
5.021864
 10
4.768294
 20
3.709954
 10
4.768294
 20
0.000284
 10
3.776107
 20
0.000284
 10
3.776107
 20
3.709954
 10
3.453646
 20
4.793094
 10
2.541385
 20
5.1321
 10
1.711806
 20
4.90333
 10
1.157834
 20
4.283232
 10
0.99247
 20
3.202857
 10
0.99247
 20
0.000284
 10
0.000282
 20
0.000284
  0
LWPOLYLINE
  5
13F
330
1F
100
AcDbEntity
  8
I_
 62
     7
100
AcDbPolyline
 90
        5
 70
     0
 43
0.0
 10
2.257778
 20
6.940072
 10
2.257778
 20
8.081096
 10
3.249965
 20
8.081096
 10
3.249965
 20
6.940072
 10
2.257778
 20
6.940072
  0
LWPOLYLINE
  5
140
330
1F
100
AcDbEntity
  8
I_
 62
     7
100
AcDbPolyline
 90
        5
 70
     0
 43
0.0
 10
2.257778
 20
0.000284
 10
2.257778
 20
5.854193
 10
3.249965
 20
5.854193
 10
3.249965
 20
0.000284
 10
2.257778
 20
0.000284
  0
LWPOLYLINE
  5
141
330
1F
100
AcDbEntity
  8
J_
 62
     7
100
AcDbPolyline
 90
        5
 70
     0
 43
0.0
 10
2.667882
 20
9.304788
 10
2.667882
 20
10.456848
 10
3.660069
 20
10.456848
 10
3.660069
 20
9.304788
 10
2.667882
 20
9.304788
  0
LWPOLYLINE
  5
142
330
1F
100
AcDbEntity
  8
J_
 62
     7
100
AcDbPolyline
 90
       11
 70
     0
 43
0.0
 10
1.411111
 20
0.105021
 10
1.598524
 20
0.948386
 10
2.067057
 20
0.871198
 10
2.519054
 20
1.072394
 10
2.667882
 20
2.078375
 10
2.667882
 20
8.229945
 10
3.660069
 20
8.229945
 10
3.660069
 20
2.056334
 10
3.37895
 20
0.551497
 10
2.188325
 20
0.000288
 10
1.411111
 20
0.105021
  0
LWPOLYLINE
  5
143
330
1F
100
AcDbEntity
  8
K_
 62
     7
100
AcDbPolyline
 90
       13
 70
     0
 43
0.0
 10
0.000282
 20
0.000284
 10
0.000282
 20
8.081096
 10
0.99247
 20
8.081096
 10
0.99247
 20
3.472943
 10
3.340647
 20
5.854193
 10
4.624978
 20
5.854193
 10
2.387044
 20
3.682409
 10
4.850977
 20
0.000284
 10
3.627279
 20
0.000284
 10
1.692513
 20
2.993391
 10
0.99247
 20
2.320912
 10
0.99247
 20
0.000284
 10
0.000282
 20
0.000284
  0
LWPOLYLINE
  5
144
330
1F
100
AcDbEntity
  8
L_
 62
     7
100
AcDbPolyline
 90
        5
 70
     0
 43
0.0
 10
2.257778
 20
0.000284
 10
2.257778
 20
8.081096
 10
3.249965
 20
8.081096
 10
3.249965
 20
0.000284
 10
2.257778
 20
0.000284
  0
LWPOLYLINE
  5
145
330
1F
100
AcDbEntity
  8
M_
 62
     7
100
AcDbPolyline
 90
       29
 70
     0
 43
0.0
 10
0.000282
 20
0.000288
 10
0.000282
 20
5.854198
 10
0.600225
 20
5.854198
 10
0.600225
 20
5.032875
 10
1.09583
 20
5.724658
 10
1.800111
 20
5.986476
 10
2.52116
 20
5.716389
 10
2.918017
 20
4.961219
 10
4.140261
 20
5.986476
 10
5.045764
 20
5.504158
 10
5.362504
 20
4.018653
 10
5.362504
 20
0.000288
 10
4.446036
 20
0.000288
 10
4.396145
 20
3.63802
 10
4.430715
 20
4.44526
 10
4.194091
 20
4.866957
 10
3.791645
 20
4.777379
 10
3.198324
 20
4.316821
 10
3.022355
 20
3.401292
 10
3.022355
 20
0.000288
 10
2.25183
 20
-0.049608
 10
2.15205
 20
3.654022
 10
2.037981
 20
4.596306
 10
1.651057
 20
4.827248
 10
1.327065
 20
4.556879
 10
0.928761
 20
4.211298
 10
0.970368
 20
2.987582
 10
1.020258
 20
0.050185
 10
0.000282
 20
0.000288
  0
LWPOLYLINE
  5
146
330
1F
100
AcDbEntity
  8
N_
 62
     7
100
AcDbPolyline
 90
       19
 70
     0
 43
0.0
 10
0.000564
 20
0.000284
 10
0.000564
 20
5.854193
 10
0.893533
 20
5.854193
 10
0.893533
 20
5.021864
 10
2.756641
 20
5.986471
 10
3.729536
 20
5.79631
 10
4.39375
 20
5.297454
 10
4.702431
 20
4.564353
 10
4.757552
 20
3.599718
 10
4.757552
 20
0.000284
 10
3.765365
 20
0.000284
 10
3.765365
 20
3.561138
 10
3.64961
 20
4.46789
 10
3.238954
 20
4.947442
 10
2.547179
 20
5.126596
 10
1.453017
 20
4.724204
 10
0.992752
 20
3.197325
 10
0.992752
 20
0.000284
 10
0.000564
 20
0.000284
  0
LWPOLYLINE
  5
147
330
1F
100
AcDbEntity
  8
O_
 62
     7
100
AcDbPolyline
 90
       10
 70
     0
 43
0.0
 10
0.000282
 20
3.059516
 10
0.904275
 20
5.468339
 10
2.745334
 20
6.118777
 10
4.718685
 20
5.327764
 10
5.484874
 20
3.142207
 10
5.145877
 20
1.364546
 10
4.159201
 20
0.358565
 10
2.745334
 20
0.000284
 10
0.758203
 20
0.78853
 10
0.000282
 20
3.059516
  0
LWPOLYLINE
  5
148
330
1F
100
AcDbEntity
  8
O_
 62
     7
100
AcDbPolyline
 90
        9
 70
     0
 43
0.0
 10
1.020031
 20
3.059516
 10
1.510612
 20
1.375552
 10
2.745334
 20
0.816075
 10
3.974544
 20
1.378318
 10
4.465126
 20
3.092592
 10
3.971788
 20
4.737976
 10
2.745334
 20
5.297454
 10
1.510612
 20
4.740742
 10
1.020031
 20
3.059516
  0
LWPOLYLINE
  5
149
330
1F
100
AcDbEntity
  8
P_
 62
     7
100
AcDbPolyline
 90
       16
 70
     0
 43
0.0
 10
0.000282
 20
-2.257772
 10
0.000282
 20
5.839579
 10
0.904275
 20
5.839579
 10
0.904275
 20
5.078906
 10
1.626367
 20
5.748619
 10
2.602018
 20
5.971885
 10
3.924935
 20
5.586031
 10
4.790343
 20
4.497358
 10
5.082487
 20
2.956736
 10
4.760026
 20
1.338897
 10
3.82296
 20
0.23648
 10
2.53036
 20
-0.146608
 10
1.640148
 20
0.062857
 10
0.99247
 20
0.592024
 10
0.99247
 20
-2.257772
 10
0.000282
 20
-2.257772
  0
LWPOLYLINE
  5
14A
330
1F
100
AcDbEntity
  8
P_
 62
     7
100
AcDbPolyline
 90
        9
 70
     0
 43
0.0
 10
0.898763
 20
2.879548
 10
1.356272
 20
1.209385
 10
2.464214
 20
0.669183
 10
3.596962
 20
1.228661
 10
4.068251
 20
2.962239
 10
3.607986
 20
4.637933
 10
2.508312
 20
5.194645
 10
1.386589
 20
4.602091
 10
0.898763
 20
2.879548
  0
LWPOLYLINE
  5
14B
330
1F
100
AcDbEntity
  8
Q_
 62
     7
100
AcDbPolyline
 90
       14
 70
     0
 43
0.0
 10
4.079275
 20
-2.257776
 10
4.079275
 20
0.608557
 10
3.431597
 20
0.068356
 10
2.546897
 20
-0.146613
 10
0.752691
 20
0.685717
 10
0.000282
 20
2.967737
 10
0.306207
 20
4.549734
 10
1.193663
 20
5.610833
 10
2.469727
 20
5.97188
 10
4.178494
 20
5.056859
 10
4.178494
 20
5.839574
 10
5.071463
 20
5.839574
 10
5.071463
 20
-2.257776
 10
4.079275
 20
-2.257776
  0
LWPOLYLINE
  5
14C
330
1F
100
AcDbEntity
  8
Q_
 62
     7
100
AcDbPolyline
 90
        9
 70
     0
 43
0.0
 10
1.020031
 20
2.929158
 10
1.494076
 20
1.234187
 10
2.629579
 20
0.669178
 10
3.720985
 20
1.206614
 10
4.178494
 20
2.840963
 10
3.696181
 20
4.599349
 10
2.563433
 20
5.189137
 10
1.469271
 20
4.640694
 10
1.020031
 20
2.929158
  0
LWPOLYLINE
  5
14D
330
1F
100
AcDbEntity
  8
R_
 62
     7
100
AcDbPolyline
 90
       14
 70
     0
 43
0.0
 10
1.693333
 20
0.000284
 10
1.693333
 20
5.854193
 10
2.586302
 20
5.854193
 10
2.586302
 20
4.966746
 10
3.217444
 20
5.78804
 10
3.854097
 20
5.986471
 10
4.873845
 20
5.66677
 10
4.532092
 20
4.746245
 10
3.804488
 20
4.961214
 10
3.2202
 20
4.765549
 10
2.850885
 20
4.222582
 10
2.685521
 20
3.065048
 10
2.685521
 20
0.000284
 10
1.693333
 20
0.000284
  0
LWPOLYLINE
  5
14E
330
1F
100
AcDbEntity
  8
S_
 62
     7
100
AcDbPolyline
 90
       34
 70
     0
 43
0.0
 10
0.000282
 20
1.87994
 10
0.981445
 20
2.034259
 10
1.44171
 20
1.130273
 10
2.497287
 20
0.816075
 10
3.511523
 20
1.094431
 10
3.842253
 20
1.747634
 10
3.550109
 20
2.276801
 10
2.535872
 20
2.61304
 10
1.022787
 20
3.089855
 10
0.383377
 20
3.646566
 10
0.165647
 20
4.432047
 10
0.344792
 20
5.156907
 10
0.832617
 20
5.710881
 10
1.463759
 20
6.000272
 10
2.320899
 20
6.118777
 10
3.530816
 20
5.920346
 10
4.299761
 20
5.38291
 10
4.641515
 20
4.476159
 10
3.671376
 20
4.343853
 10
3.288281
 20
5.049408
 10
2.392557
 20
5.302985
 10
1.416906
 20
5.076982
 10
1.124761
 20
4.547815
 10
1.246029
 20
4.20054
 10
1.626367
 20
3.935957
 10
2.5028
 20
3.682409
 10
3.971788
 20
3.222132
 10
4.624978
 20
2.701235
 10
4.862001
 20
1.852367
 10
4.572613
 20
0.918042
 10
3.737522
 20
0.24006
 10
2.5028
 20
0.000284
 10
0.763715
 20
0.474332
 10
0.000282
 20
1.87994
  0
LWPOLYLINE
  5
14F
330
1F
100
AcDbEntity
  8
T_
 62
     7
100
AcDbPolyline
 90
       21
 70
     0
 43
0.0
 10
4.12309
 20
0.964896
 10
4.266406
 20
0.088483
 10
3.516753
 20
0.000288
 10
2.678906
 20
0.171146
 10
2.259983
 20
0.620387
 10
2.138715
 20
1.791722
 10
2.138715
 20
5.159649
 10
1.411111
 20
5.159649
 10
1.411111
 20
5.931358
 10
2.138715
 20
5.931358
 10
2.138715
 20
7.381049
 10
3.125391
 20
7.976368
 10
3.125391
 20
5.931358
 10
4.12309
 20
5.931358
 10
4.12309
 20
5.159649
 10
3.125391
 20
5.159649
 10
3.125391
 20
1.736604
 10
3.177756
 20
1.190899
 10
3.348633
 20
0.997972
 10
3.68763
 20
0.926316
 10
4.12309
 20
0.964896
  0
LWPOLYLINE
  5
150
330
1F
100
AcDbEntity
  8
U_
 62
     7
100
AcDbPolyline
 90
       21
 70
     0
 43
0.0
 10
3.858789
 20
0.132566
 10
3.858789
 20
0.992469
 10
3.104444
 20
0.282228
 10
2.001194
 20
0.000288
 10
1.033811
 20
0.198719
 10
0.36684
 20
0.697575
 10
0.060916
 20
1.433441
 10
0.000282
 20
2.359469
 10
0.000282
 20
5.986476
 10
0.99247
 20
5.986476
 10
0.99247
 20
2.73982
 10
1.053103
 20
1.692521
 10
1.449978
 20
1.077898
 10
2.199631
 20
0.85466
 10
3.037478
 20
1.083429
 10
3.59145
 20
1.706294
 10
3.754058
 20
2.850056
 10
3.754058
 20
5.986476
 10
4.746246
 20
5.986476
 10
4.746246
 20
0.132566
 10
3.858789
 20
0.132566
  0
LWPOLYLINE
  5
151
330
1F
100
AcDbEntity
  8
V_
 62
     7
100
AcDbPolyline
 90
       10
 70
     0
 43
0.0
 10
2.227192
 20
0.000288
 10
0.000282
 20
5.854198
 10
1.047591
 20
5.854198
 10
2.304362
 20
2.34849
 10
2.679188
 20
1.168886
 10
3.048503
 20
2.282337
 10
4.349371
 20
5.854198
 10
5.369119
 20
5.854198
 10
3.153234
 20
0.000288
 10
2.227192
 20
0.000288
  0
LWPOLYLINE
  5
152
330
1F
100
AcDbEntity
  8
W_
 62
     7
100
AcDbPolyline
 90
       19
 70
     0
 43
0.0
 10
1.190788
 20
0.000288
 10
0.000282
 20
5.854198
 10
0.681618
 20
5.854198
 10
1.300681
 20
2.475264
 10
1.531456
 20
1.218472
 10
1.732926
 20
2.42565
 10
2.351989
 20
5.854198
 10
3.029662
 20
5.854198
 10
3.612094
 20
2.458726
 10
3.806238
 20
1.339743
 10
4.029687
 20
2.469733
 10
4.69637
 20
5.854198
 10
5.337412
 20
5.854198
 10
4.121264
 20
0.000288
 10
3.436266
 20
0.000288
 10
2.817202
 20
3.506025
 10
2.667016
 20
4.503737
 10
1.87945
 20
0.000288
 10
1.190788
 20
0.000288
  0
LWPOLYLINE
  5
153
330
1F
100
AcDbEntity
  8
X_
 62
     7
100
AcDbPolyline
 90
       16
 70
     0
 43
0.0
 10
0.000282
 20
0.000288
 10
2.138997
 20
3.042983
 10
0.160135
 20
5.854198
 10
1.400369
 20
5.854198
 10
2.29885
 20
4.481667
 10
2.706749
 20
3.825726
 10
3.153234
 20
4.470632
 10
4.139909
 20
5.854198
 10
5.325022
 20
5.854198
 10
3.302062
 20
3.098101
 10
5.479362
 20
0.000288
 10
4.261176
 20
0.000288
 10
3.059527
 20
1.819295
 10
2.739822
 20
2.309882
 10
1.201932
 20
0.000288
 10
0.000282
 20
0.000288
  0
LWPOLYLINE
  5
154
330
1F
100
AcDbEntity
  8
Y_
 62
     7
100
AcDbPolyline
 90
       19
 70
     0
 43
0.0
 10
0.518425
 20
-2.136501
 10
0.408182
 20
-1.20497
 10
0.975933
 20
-1.293164
 10
1.5051
 20
-1.1829
 10
1.830317
 20
-0.874234
 10
2.133485
 20
-0.135602
 10
2.22168
 20
0.10694
 10
0.000282
 20
5.971857
 10
1.06964
 20
5.971857
 10
2.287826
 20
2.581888
 10
2.712261
 20
1.225895
 10
3.120161
 20
2.559846
 10
4.371419
 20
5.971857
 10
5.363607
 20
5.971857
 10
3.136697
 20
0.018746
 10
2.57997
 20
-1.309702
 10
1.973633
 20
-2.02903
 10
1.157834
 20
-2.257772
 10
0.518425
 20
-2.136501
  0
LWPOLYLINE
  5
155
330
1F
100
AcDbEntity
  8
Z_
 62
     7
100
AcDbPolyline
 90
       14
 70
     0
 43
0.0
 10
0.000282
 20
0.000288
 10
0.000282
 20
0.805073
 10
3.726497
 20
5.082518
 10
2.607531
 20
5.049442
 10
0.220768
 20
5.049442
 10
0.220768
 20
5.854198
 10
5.005317
 20
5.854198
 10
5.005317
 20
5.198257
 10
1.835829
 20
1.483084
 10
1.22398
 20
0.805073
 10
2.475239
 20
0.854688
 10
5.181706
 20
0.854688
 10
5.181706
 20
0.000288
 10
0.000282
 20
0.000288
  0
LWPOLYLINE
  5
156
330
1F
100
AcDbEntity
  8
_0
 62
     7
100
AcDbPolyline
 90
       17
 70
     0
 43
0.0
 10
0.056224
 20
3.176129
 10
0.056224
 20
4.306122
 10
1.360019
 20
4.967578
 10
1.950948
 20
4.871117
 10
2.832651
 20
4.488021
 10
3.318056
 20
4.278561
 10
3.644005
 20
4.228952
 10
4.274798
 20
4.443925
 10
4.854002
 20
4.984116
 10
4.854002
 20
3.81554
 10
4.246659
 20
3.335982
 10
3.554897
 20
3.187153
 10
3.017902
 20
3.264323
 10
2.206548
 20
3.633639
 10
1.28029
 20
3.925782
 10
0.715156
 20
3.774199
 10
0.056224
 20
3.176129
  0
LWPOLYLINE
  5
157
330
1F
100
AcDbEntity
  8
_1
 62
     7
100
AcDbPolyline
 90
        7
 70
     0
 43
0.0
 10
2.278724
 20
1.75215
 10
1.975556
 20
5.491707
 10
1.975556
 20
7.055839
 10
3.204766
 20
7.055839
 10
3.204766
 20
5.491707
 10
2.918134
 20
1.75215
 10
2.278724
 20
1.75215
  0
LWPOLYLINE
  5
158
330
1F
100
AcDbEntity
  8
_1
 62
     7
100
AcDbPolyline
 90
        5
 70
     0
 43
0.0
 10
2.019653
 20
0.000284
 10
2.019653
 20
0.986904
 10
3.160668
 20
0.986904
 10
3.160668
 20
0.000284
 10
2.019653
 20
0.000284
  0
LWPOLYLINE
  5
159
330
1F
100
AcDbEntity
  8
_2
 62
     7
100
AcDbPolyline
 90
       50
 70
     0
 43
0.0
 10
2.660085
 20
2.178562
 10
2.291512
 20
1.736674
 10
1.882409
 20
1.569818
 10
1.444175
 20
1.760511
 10
1.098401
 20
2.347251
 10
0.965411
 20
3.216361
 10
1.171862
 20
4.384342
 10
1.684824
 20
5.262618
 10
2.280113
 20
5.555987
 10
2.700615
 20
5.389133
 10
3.045123
 20
4.881238
 10
3.13125
 20
5.449641
 10
3.584683
 20
5.449641
 10
3.21991
 20
2.988996
 10
3.143916
 20
2.420593
 10
3.195845
 20
2.250072
 10
3.321236
 20
2.178562
 10
3.673343
 20
2.402256
 10
4.130576
 20
3.188857
 10
4.29903
 20
4.206486
 10
4.082446
 20
5.35063
 10
3.436494
 20
6.201403
 10
2.487831
 20
6.520443
 10
1.404911
 20
6.118894
 10
0.644968
 20
4.967415
 10
0.375188
 20
3.359378
 10
0.644968
 20
1.811849
 10
1.425177
 20
0.852895
 10
2.556226
 20
0.543021
 10
3.668277
 20
0.865729
 10
4.33956
 20
1.650495
 10
4.79806
 20
1.650495
 10
4.354759
 20
0.865729
 10
3.607481
 20
0.233151
 10
2.563825
 20
0.000287
 10
1.526502
 20
0.209314
 10
0.717162
 20
0.838225
 10
0.213066
 20
1.804514
 10
0.000282
 20
3.300705
 10
0.253597
 20
5.005918
 10
1.131332
 20
6.527778
 10
2.510629
 20
7.055843
 10
3.639146
 20
6.683629
 10
4.42822
 20
5.574324
 10
4.673936
 20
4.195484
 10
4.157174
 20
2.306913
 10
3.148982
 20
1.566153
 10
2.866536
 20
1.643163
 10
2.708215
 20
1.863189
 10
2.660085
 20
2.178562
  0
LWPOLYLINE
  5
15A
330
1F
100
AcDbEntity
  8
_2
 62
     7
100
AcDbPolyline
 90
       13
 70
     0
 43
0.0
 10
1.434043
 20
3.172355
 10
1.598697
 20
2.391257
 10
1.976136
 20
2.112555
 10
2.275047
 20
2.235403
 10
2.575224
 20
2.600281
 10
2.80954
 20
3.214525
 10
2.900734
 20
3.960788
 10
2.729746
 20
4.734551
 10
2.313044
 20
5.009585
 10
2.0078
 20
4.890405
 10
1.730421
 20
4.507189
 10
1.515103
 20
3.865441
 10
1.434043
 20
3.172355
  0
LWPOLYLINE
  5
15B
330
1F
100
AcDbEntity
  8
_3
 62
     7
100
AcDbPolyline
 90
       29
 70
     0
 43
0.0
 10
0.360555
 20
0.000312
 10
0.742795
 20
1.982931
 10
0.000282
 20
1.982931
 10
0.000282
 20
2.676394
 10
0.874603
 20
2.676394
 10
1.199727
 20
4.365815
 10
0.000282
 20
4.365815
 10
0.000282
 20
5.059249
 10
1.331534
 20
5.059249
 10
1.713774
 20
7.055854
 10
2.37281
 20
7.055854
 10
1.990569
 20
5.059249
 10
3.374544
 20
5.059249
 10
3.756784
 20
7.055854
 10
4.420213
 20
7.055854
 10
4.037973
 20
5.059249
 10
4.79806
 20
5.059249
 10
4.79806
 20
4.365815
 10
3.906166
 20
4.365815
 10
3.576648
 20
2.676394
 10
4.79806
 20
2.676394
 10
4.79806
 20
1.982931
 10
3.444841
 20
1.982931
 10
3.0626
 20
0.000312
 10
2.403565
 20
0.000312
 10
2.781412
 20
1.982931
 10
1.401831
 20
1.982931
 10
1.01959
 20
0.000312
 10
0.360555
 20
0.000312
  0
LWPOLYLINE
  5
15C
330
1F
100
AcDbEntity
  8
_3
 62
     7
100
AcDbPolyline
 90
        5
 70
     0
 43
0.0
 10
1.533638
 20
2.676394
 10
2.913219
 20
2.676394
 10
3.242737
 20
4.365815
 10
1.858762
 20
4.365815
 10
1.533638
 20
2.676394
  0
LWPOLYLINE
  5
15D
330
1F
100
AcDbEntity
  8
$
 62
     7
100
AcDbPolyline
 90
       31
 70
     0
 43
0.0
 10
2.161755
 20
0.000281
 10
2.161755
 20
0.701166
 10
1.076073
 20
0.936747
 10
0.353933
 20
1.483833
 10
0.000282
 20
2.406651
 10
0.895538
 20
2.539041
 10
1.261554
 20
1.709673
 10
2.161755
 20
1.293024
 10
2.161755
 20
3.524185
 10
1.038976
 20
3.859052
 10
0.38361
 20
4.376915
 10
0.153613
 20
5.128407
 10
0.826291
 20
6.339392
 10
2.161755
 20
6.720984
 10
2.161755
 20
7.055851
 10
2.686049
 20
7.055851
 10
2.686049
 20
6.720984
 10
3.917643
 20
6.362755
 10
4.619998
 20
5.315309
 10
3.700012
 20
5.206283
 10
3.371092
 20
5.839032
 10
2.686049
 20
6.129126
 10
2.686049
 20
4.108255
 10
3.576358
 20
3.901871
 10
4.253982
 20
3.551429
 10
4.657094
 20
3.06081
 10
4.79806
 20
2.445589
 10
4.209467
 20
1.230723
 10
2.686049
 20
0.708953
 10
2.686049
 20
0.000281
 10
2.161755
 20
0.000281
  0
LWPOLYLINE
  5
15E
330
1F
100
AcDbEntity
  8
$
 62
     7
100
AcDbPolyline
 90
        6
 70
     0
 43
0.0
 10
2.161755
 20
6.136914
 10
1.343165
 20
5.809835
 10
1.043923
 20
5.18292
 10
1.29865
 20
4.583274
 10
2.161755
 20
4.1978
 10
2.161755
 20
6.136914
  0
LWPOLYLINE
  5
15F
330
1F
100
AcDbEntity
  8
$
 62
     7
100
AcDbPolyline
 90
        6
 70
     0
 43
0.0
 10
2.686049
 20
1.293024
 10
3.544208
 20
1.647372
 10
3.88302
 20
2.398864
 10
3.643131
 20
3.012131
 10
2.686049
 20
3.426828
 10
2.686049
 20
1.293024
  0
LWPOLYLINE
  5
160
330
1F
100
AcDbEntity
  8
_4
 62
     7
100
AcDbPolyline
 90
        9
 70
     0
 43
0.0
 10
0.000282
 20
5.334189
 10
0.24078
 20
6.553498
 10
0.937919
 20
7.055837
 10
1.633536
 20
6.606018
 10
1.909043
 20
5.283957
 10
1.630492
 20
3.975595
 10
0.944008
 20
3.516643
 10
0.269701
 20
3.968747
 10
0.000282
 20
5.334189
  0
LWPOLYLINE
  5
161
330
1F
100
AcDbEntity
  8
_4
 62
     7
100
AcDbPolyline
 90
        9
 70
     0
 43
0.0
 10
0.95314
 20
6.489565
 10
0.613704
 20
6.224698
 10
0.478233
 20
5.25199
 10
0.615226
 20
4.345497
 10
0.95314
 20
4.082912
 10
1.295621
 20
4.347782
 10
1.431092
 20
5.315924
 10
1.294099
 20
6.22698
 10
0.95314
 20
6.489565
  0
LWPOLYLINE
  5
162
330
1F
100
AcDbEntity
  8
_4
 62
     7
100
AcDbPolyline
 90
        5
 70
     0
 43
0.0
 10
0.956185
 20
0.000281
 10
3.397693
 20
7.055837
 10
3.842158
 20
7.055837
 10
1.409782
 20
0.000281
 10
0.956185
 20
0.000281
  0
LWPOLYLINE
  5
163
330
1F
100
AcDbEntity
  8
_4
 62
     7
100
AcDbPolyline
 90
        9
 70
     0
 43
0.0
 10
2.886255
 20
1.817829
 10
3.126753
 20
3.039424
 10
3.826936
 20
3.539474
 10
4.522553
 20
3.089655
 10
4.79806
 20
1.767594
 10
4.519509
 20
0.459236
 10
3.82998
 20
0.000281
 10
3.155673
 20
0.454669
 10
2.886255
 20
1.817829
  0
LWPOLYLINE
  5
164
330
1F
100
AcDbEntity
  8
_4
 62
     7
100
AcDbPolyline
 90
        9
 70
     0
 43
0.0
 10
3.842158
 20
2.973205
 10
3.499677
 20
2.708335
 10
3.364206
 20
1.735628
 10
3.501199
 20
0.831419
 10
3.839113
 20
0.566553
 10
4.184638
 20
0.831419
 10
4.320109
 20
1.799561
 10
4.183116
 20
2.71062
 10
3.842158
 20
2.973205
  0
LWPOLYLINE
  5
165
330
1F
100
AcDbEntity
  8
_5
 62
     7
100
AcDbPolyline
 90
        8
 70
     0
 43
0.0
 10
1.299766
 20
3.009647
 10
0.280017
 20
3.009647
 10
2.225807
 20
7.424873
 10
3.025069
 20
7.424873
 10
4.981884
 20
3.009647
 10
3.984184
 20
3.009647
 10
2.622682
 20
6.300387
 10
1.299766
 20
3.009647
  0
LWPOLYLINE
  5
166
330
1F
100
AcDbEntity
  8
_6
 62
     7
100
AcDbPolyline
 90
       21
 70
     0
 43
0.0
 10
3.449538
 20
0.958006
 10
2.69343
 20
0.270957
 10
1.808705
 20
0.041942
 10
0.417311
 20
0.745183
 10
0.000282
 20
2.026749
 10
0.34131
 20
3.16258
 10
1.360497
 20
4.053197
 10
0.846032
 20
4.909116
 10
0.717416
 20
5.54296
 10
1.120803
 20
6.604763
 10
2.136092
 20
7.055857
 10
3.09292
 20
6.630211
 10
3.465128
 20
5.607733
 10
2.38553
 20
3.956039
 10
3.410563
 20
2.40613
 10
3.683385
 20
3.349955
 10
4.412211
 20
3.164892
 10
3.905541
 20
1.702888
 10
4.79806
 20
0.661906
 10
4.326467
 20
0.000302
 10
3.449538
 20
0.958006
  0
LWPOLYLINE
  5
167
330
1F
100
AcDbEntity
  8
_6
 62
     7
100
AcDbPolyline
 90
       10
 70
     0
 43
0.0
 10
2.023066
 20
4.492723
 10
2.613532
 20
5.052542
 10
2.747994
 20
5.584601
 10
2.562865
 20
6.151357
 10
2.101015
 20
6.37112
 10
1.627473
 20
6.153672
 10
1.438446
 20
5.621613
 10
1.506652
 20
5.290813
 10
1.711269
 20
4.922996
 10
2.023066
 20
4.492723
  0
LWPOLYLINE
  5
168
330
1F
100
AcDbEntity
  8
_6
 62
     7
100
AcDbPolyline
 90
        8
 70
     0
 43
0.0
 10
3.009124
 20
1.614983
 10
1.722961
 20
3.507261
 10
0.955161
 20
2.760066
 10
0.75639
 20
2.077642
 10
1.03311
 20
1.221722
 10
1.8165
 20
0.777568
 10
2.469325
 20
1.011211
 10
3.009124
 20
1.614983
  0
LWPOLYLINE
  5
169
330
1F
100
AcDbEntity
  8
0
 62
     7
100
AcDbPolyline
 90
       16
 70
     0
 43
0.0
 10
0.723194
 20
5.292769
 10
0.976753
 20
6.075512
 10
2.250061
 20
5.540814
 10
2.139818
 20
6.913345
 10
2.93908
 20
6.913345
 10
2.8123
 20
5.546345
 10
4.113168
 20
6.075512
 10
4.366727
 20
5.292769
 10
2.994201
 20
4.984102
 10
3.942292
 20
3.942307
 10
3.280833
 20
3.473762
 10
2.525668
 20
4.658869
 10
1.809089
 20
3.473762
 10
1.158654
 20
3.942307
 10
2.073672
 20
4.984102
 10
0.723194
 20
5.292769
  0
LWPOLYLINE
  5
16A
330
1F
100
AcDbEntity
  8
_7
 62
     7
100
AcDbPolyline
 90
       11
 70
     0
 43
0.0
 10
3.067408
 20
0.000298
 10
1.891871
 20
1.854548
 10
1.411393
 20
4.054406
 10
1.770585
 20
5.976093
 10
3.067408
 20
8.100065
 10
3.669171
 20
8.100065
 10
2.922798
 20
6.848429
 10
2.474975
 20
5.634723
 10
2.274387
 20
4.050168
 10
3.669171
 20
0.000298
 10
3.067408
 20
0.000298
  0
LWPOLYLINE
  5
16B
330
1F
100
AcDbEntity
  8
_8
 62
     7
100
AcDbPolyline
 90
       11
 70
     0
 43
0.0
 10
2.013156
 20
0.000295
 10
1.411393
 20
0.000295
 10
2.806178
 20
4.050165
 10
2.60559
 20
5.622086
 10
2.162431
 20
6.835792
 10
1.411393
 20
8.100062
 10
2.013156
 20
8.100062
 10
3.309979
 20
5.97609
 10
3.669171
 20
4.054403
 10
3.186361
 20
1.854545
 10
2.013156
 20
0.000295
  0
LWPOLYLINE
  5
16C
330
1F
100
AcDbEntity
  8
_
 62
     7
100
AcDbPolyline
 90
        5
 70
     0
 43
0.0
 10
0.000282
 20
-0.722902
 10
0.000282
 20
-0.006323
 10
5.080282
 20
-0.006323
 10
5.080282
 20
-0.722902
 10
0.000282
 20
-0.722902
  0
LWPOLYLINE
  5
16D
330
1F
100
AcDbEntity
  8
_9
 62
     7
100
AcDbPolyline
 90
       13
 70
     0
 43
0.0
 10
1.988621
 20
1.62387
 10
1.988621
 20
3.614287
 10
0.011024
 20
3.614287
 10
0.011024
 20
4.446102
 10
1.988621
 20
4.446102
 10
1.988621
 20
6.421654
 10
2.831206
 20
6.421654
 10
2.831206
 20
4.446102
 10
4.808802
 20
4.446102
 10
4.808802
 20
3.614287
 10
2.831206
 20
3.614287
 10
2.831206
 20
1.62387
 10
1.988621
 20
1.62387
  0
LWPOLYLINE
  5
16E
330
1F
100
AcDbEntity
  8
-
 62
     7
100
AcDbPolyline
 90
        5
 70
     0
 43
0.0
 10
0.799262
 20
3.607155
 10
0.799262
 20
4.453821
 10
3.847483
 20
4.453821
 10
3.847483
 20
3.607155
 10
0.799262
 20
3.607155
  0
LWPOLYLINE
  5
16F
330
1F
100
AcDbEntity
  8
_A
 62
     7
100
AcDbPolyline
 90
        5
 70
     0
 43
0.0
 10
4.826441
 20
4.626115
 10
0.028663
 20
4.626115
 10
0.028663
 20
5.438278
 10
4.826441
 20
5.438278
 10
4.826441
 20
4.626115
  0
LWPOLYLINE
  5
170
330
1F
100
AcDbEntity
  8
_A
 62
     7
100
AcDbPolyline
 90
        5
 70
     0
 43
0.0
 10
4.826441
 20
2.474923
 10
0.028663
 20
2.474923
 10
0.028663
 20
3.287058
 10
4.826441
 20
3.287058
 10
4.826441
 20
2.474923
  0
LWPOLYLINE
  5
171
330
1F
100
AcDbEntity
  8
_B
 62
     7
100
AcDbPolyline
 90
       10
 70
     0
 43
0.0
 10
2.026267
 20
0.01764
 10
2.026267
 20
1.14763
 10
3.156259
 20
1.14763
 10
3.156259
 20
0.01764
 10
2.935773
 20
-0.988313
 10
2.235729
 20
-1.580866
 10
1.960122
 20
-1.156432
 10
2.423142
 20
-0.751302
 10
2.588507
 20
0.01764
 10
2.026267
 20
0.01764
  0
LWPOLYLINE
  5
172
330
1F
100
AcDbEntity
  8
_C
 62
     7
100
AcDbPolyline
 90
        5
 70
     0
 43
0.0
 10
2.030677
 20
0.000001
 10
2.030677
 20
1.129991
 10
3.160668
 20
1.129991
 10
3.160668
 20
0.000001
 10
2.030677
 20
0.000001
  0
LWPOLYLINE
  5
173
330
1F
100
AcDbEntity
  8
_D
 62
     7
100
AcDbPolyline
 90
        8
 70
     0
 43
0.0
 10
0.458611
 20
2.922511
 10
0.458611
 20
3.848554
 10
4.691944
 20
6.108536
 10
4.691944
 20
5.121861
 10
1.334924
 20
3.380019
 10
4.691944
 20
1.621644
 10
4.691944
 20
0.634968
 10
0.458611
 20
2.922511
  0
LWPOLYLINE
  5
174
330
1F
100
AcDbEntity
  8
_E
 62
     7
100
AcDbPolyline
 90
        8
 70
     0
 43
0.0
 10
4.550834
 20
2.922557
 10
0.3175
 20
0.635013
 10
0.3175
 20
1.621689
 10
3.670161
 20
3.380064
 10
0.3175
 20
5.121906
 10
0.3175
 20
6.108581
 10
4.550834
 20
3.848599
 10
4.550834
 20
2.922557
  0
LWPOLYLINE
  5
175
330
1F
100
AcDbEntity
  8
_F
 62
     7
100
AcDbPolyline
 90
       22
 70
     0
 43
0.0
 10
1.937651
 20
1.708584
 10
1.93258
 20
1.964103
 10
2.084729
 20
2.830079
 10
2.444816
 20
3.383725
 10
3.101594
 20
3.977608
 10
3.717799
 20
4.59987
 10
3.859805
 20
5.106218
 10
3.44393
 20
5.979282
 10
2.424529
 20
6.355485
 10
1.450773
 20
6.014776
 10
0.938537
 20
4.950066
 10
0.000282
 20
5.054177
 10
0.753422
 20
6.540043
 10
2.409314
 20
7.055851
 10
4.148889
 20
6.502177
 10
4.79806
 20
5.163003
 10
4.569836
 20
4.325433
 10
3.677226
 20
3.393185
 10
3.093987
 20
2.848998
 10
2.891121
 20
2.446788
 10
2.815046
 20
1.708584
 10
1.937651
 20
1.708584
  0
LWPOLYLINE
  5
176
330
1F
100
AcDbEntity
  8
_F
 62
     7
100
AcDbPolyline
 90
        5
 70
     0
 43
0.0
 10
1.881863
 20
0.000294
 10
1.881863
 20
0.970354
 10
2.921551
 20
0.970354
 10
2.921551
 20
0.000294
 10
1.881863
 20
0.000294
  0
LWPOLYLINE
  5
177
330
1F
100
AcDbEntity
  8
_G
 62
     7
100
AcDbPolyline
 90
        5
 70
     0
 43
0.0
 10
1.093611
 20
0.003312
 10
3.436276
 20
7.058881
 10
4.230026
 20
7.058881
 10
1.892873
 20
0.003312
 10
1.093611
 20
0.003312
  0
LWPOLYLINE
  5
178
330
1F
100
AcDbEntity
  8
_H
 62
     7
100
AcDbPolyline
 90
        5
 70
     0
 43
0.0
 10
2.026267
 20
4.761457
 10
2.026267
 20
5.677466
 10
3.156259
 20
5.677466
 10
3.156259
 20
4.761457
 10
2.026267
 20
4.761457
  0
LWPOLYLINE
  5
179
330
1F
100
AcDbEntity
  8
_H
 62
     7
100
AcDbPolyline
 90
       10
 70
     0
 43
0.0
 10
2.026267
 20
0.93204
 10
2.026267
 20
1.848049
 10
3.156259
 20
1.848049
 10
3.156259
 20
0.93204
 10
2.935773
 20
0.116559
 10
2.235729
 20
-0.363783
 10
1.960122
 20
-0.019726
 10
2.423142
 20
0.308696
 10
2.588507
 20
0.93204
 10
2.026267
 20
0.93204
  0
LWPOLYLINE
  5
17A
330
1F
100
AcDbEntity
  8
_I
 62
     7
100
AcDbPolyline
 90
        5
 70
     0
 43
0.0
 10
2.025165
 20
4.572948
 10
2.025165
 20
5.430519
 10
3.155156
 20
5.430519
 10
3.155156
 20
4.572948
 10
2.025165
 20
4.572948
  0
LWPOLYLINE
  5
17B
330
1F
100
AcDbEntity
  8
_I
 62
     7
100
AcDbPolyline
 90
        5
 70
     0
 43
0.0
 10
2.025165
 20
0.987792
 10
2.025165
 20
1.845388
 10
3.155156
 20
1.845388
 10
3.155156
 20
0.987792
 10
2.025165
 20
0.987792
  0
LWPOLYLINE
  5
17C
330
1F
100
AcDbEntity
  8
_J
 62
     7
100
AcDbPolyline
 90
        7
 70
     0
 43
0.0
 10
1.582933
 20
5.625122
 10
1.359888
 20
6.404476
 10
1.359888
 20
7.07489
 10
2.274372
 20
7.07489
 10
2.274372
 20
6.404476
 10
2.073632
 20
5.625122
 10
1.582933
 20
5.625122
  0
LWPOLYLINE
  5
17D
330
1F
100
AcDbEntity
  8
_J
 62
     7
100
AcDbPolyline
 90
        7
 70
     0
 43
0.0
 10
3.05949
 20
5.625122
 10
2.840906
 20
6.404476
 10
2.840906
 20
7.07489
 10
3.75539
 20
7.07489
 10
3.75539
 20
6.404476
 10
3.541267
 20
5.625122
 10
3.05949
 20
5.625122
  0
LWPOLYLINE
  5
17E
330
1F
100
AcDbEntity
  8
_K
 62
     7
100
AcDbPolyline
 90
        7
 70
     0
 43
0.0
 10
1.600572
 20
5.625122
 10
1.377527
 20
6.404476
 10
1.377527
 20
7.07489
 10
2.292011
 20
7.07489
 10
2.292011
 20
6.404476
 10
2.09127
 20
5.625122
 10
1.600572
 20
5.625122
  0
LWPOLYLINE
  5
17F
330
1F
100
AcDbEntity
  8
_L
 62
     7
100
AcDbPolyline
 90
        7
 70
     0
 43
0.0
 10
1.64077
 20
5.608059
 10
1.417725
 20
6.387413
 10
1.417725
 20
7.057827
 10
2.33221
 20
7.057827
 10
2.33221
 20
6.387413
 10
2.131469
 20
5.608059
 10
1.64077
 20
5.608059
  0
LWPOLYLINE
  5
180
330
1F
100
AcDbEntity
  8
_L
 62
     7
100
AcDbPolyline
 90
        7
 70
     0
 43
0.0
 10
3.117328
 20
5.608059
 10
2.898744
 20
6.387413
 10
2.898744
 20
7.057827
 10
3.813228
 20
7.057827
 10
3.813228
 20
6.387413
 10
3.599105
 20
5.608059
 10
3.117328
 20
5.608059
  0
LWPOLYLINE
  5
181
330
1F
100
AcDbEntity
  8
_M
 62
     7
100
AcDbPolyline
 90
        9
 70
     0
 43
0.0
 10
1.260078
 20
-0.020971
 10
1.260078
 20
8.078826
 10
3.235634
 20
8.078826
 10
3.235634
 20
7.434463
 10
2.155796
 20
7.434463
 10
2.155796
 20
0.623392
 10
3.235634
 20
0.623392
 10
3.235634
 20
-0.020971
 10
1.260078
 20
-0.020971
  0
LWPOLYLINE
  5
182
330
1F
100
AcDbEntity
  8
_N
 62
     7
100
AcDbPolyline
 90
        9
 70
     0
 43
0.0
 10
3.848585
 20
0.000279
 10
1.87303
 20
0.000279
 10
1.87303
 20
0.644621
 10
2.952867
 20
0.644621
 10
2.952867
 20
7.455707
 10
1.87303
 20
7.455707
 10
1.87303
 20
8.100048
 10
3.848585
 20
8.100048
 10
3.848585
 20
0.000279
  0
LWPOLYLINE
  5
183
330
1F
100
AcDbEntity
  8
_O
 62
     7
100
AcDbPolyline
 90
       33
 70
     0
 43
0.0
 10
0.719887
 20
4.330412
 10
1.331612
 20
4.505288
 10
1.646005
 20
4.962526
 10
1.728868
 20
5.957093
 10
1.758114
 20
6.884244
 10
1.921403
 20
7.453168
 10
2.216298
 20
7.796622
 10
2.664734
 20
7.99257
 10
3.269148
 20
8.034714
 10
3.542109
 20
8.034714
 10
3.542109
 20
7.373078
 10
3.391006
 20
7.373078
 10
2.718352
 20
7.215049
 10
2.552625
 20
6.509169
 10
2.499008
 20
5.114257
 10
2.199238
 20
4.4189
 10
1.533896
 20
3.984833
 10
2.311347
 20
3.392738
 10
2.552625
 20
2.088412
 10
2.572123
 20
1.110719
 10
2.769532
 20
0.710373
 10
3.391006
 20
0.596588
 10
3.542109
 20
0.596588
 10
3.542109
 20
-0.065048
 10
3.269148
 20
-0.065048
 10
2.576997
 20
0.002367
 10
2.060321
 20
0.316325
 10
1.794671
 20
0.866302
 10
1.728868
 20
1.95778
 10
1.646005
 20
3.00714
 10
1.331612
 20
3.466477
 10
0.719887
 20
3.643479
 10
0.719887
 20
4.330412
  0
LWPOLYLINE
  5
184
330
1F
100
AcDbEntity
  8
_P
 62
     7
100
AcDbPolyline
 90
       33
 70
     0
 43
0.0
 10
4.608689
 20
4.395757
 10
4.608689
 20
3.708824
 10
3.996964
 20
3.531823
 10
3.682571
 20
3.074584
 10
3.599708
 20
2.082143
 10
3.570464
 20
1.154992
 10
3.407174
 20
0.583969
 10
3.112279
 20
0.242615
 10
2.663843
 20
0.046667
 10
2.059429
 20
0.000297
 10
1.786468
 20
0.000297
 10
1.786468
 20
0.661933
 10
1.937572
 20
0.661933
 10
2.610226
 20
0.819962
 10
2.775952
 20
1.530067
 10
2.819821
 20
2.865988
 10
3.131776
 20
3.614012
 10
3.794682
 20
4.050178
 10
3.005044
 20
4.663346
 10
2.775952
 20
5.950798
 10
2.75158
 20
6.932716
 10
2.559045
 20
7.326764
 10
1.937572
 20
7.438449
 10
1.786468
 20
7.438449
 10
1.786468
 20
8.100086
 10
2.059429
 20
8.100086
 10
2.75158
 20
8.032644
 10
3.268257
 20
7.720786
 10
3.533906
 20
7.168736
 10
3.599709
 20
6.077231
 10
3.682573
 20
5.029997
 10
3.996965
 20
4.572759
 10
4.608689
 20
4.395757
  0
LWPOLYLINE
  5
185
330
1F
100
AcDbEntity
  8
|
 62
     7
100
AcDbPolyline
 90
        5
 70
     0
 43
0.0
 10
3.224609
 20
0.000275
 10
0.881944
 20
7.055818
 10
1.681207
 20
7.055818
 10
4.018359
 20
0.000275
 10
3.224609
 20
0.000275
  0
LWPOLYLINE
  5
100AE
330
1F
100
AcDbEntity
  8
1
100
AcDbPolyline
 90
       39
 70
     1
 43
0.0
 10
4.221559953666151
 20
7.829401945077997
 10
4.198328149674872
 20
7.92232916104323
 10
4.105400933709525
 20
7.9804086710216
 10
3.884698795791856
 20
8.015256377008576
 10
3.512989931930697
 20
8.015256377008576
 10
3.199360578047681
 20
8.015256377008576
 10
3.001890244121405
 20
8.003640475012993
 10
2.885731224164665
 20
7.9804086710216
 10
2.804419910195129
 20
7.933945063038927
 10
1.096882316832371
 20
6.830434373450807
 10
0.9807232968757447
 20
6.73750715748546
 10
0.9110278849016851
 20
6.621348137528834
 10
0.887796080910519
 20
6.470341411586141
 10
0.8761801789147086
 20
6.214791567680585
 10
0.899411982906102
 20
5.85469860581501
 10
0.9691073948800479
 20
5.680460075880013
 10
1.108498218828068
 20
5.645612369893037
 10
1.34081625874132
 20
5.726923683862687
 10
2.618565478264436
 20
6.423877803602558
 10
2.618565478264436
 20
1.24318551353614
 10
1.131730022819347
 20
1.24318551353614
 10
1.038802806854001
 20
1.21995370954486
 10
0.9691073948800479
 20
1.103794689588121
 10
0.9110278849016851
 20
0.9179402576575413
 10
0.899411982906102
 20
0.6159268057702221
 10
0.9110278849016851
 20
0.3255292558785996
 10
0.9691073948800479
 20
0.1396748239480203
 10
1.038802806854001
 20
0.0351317059869771
 10
1.131730022819347
 20
0.0002840000000006
 10
5.522540977180661
 20
0.0002840000000006
 10
5.615468193145894
 20
0.0351317059869771
 10
5.696779507115544
 20
0.1396748239480203
 10
5.754859017093914
 20
0.3255292558785996
 10
5.766474919089497
 20
0.6159268057702221
 10
5.754859017093914
 20
0.9179402576575413
 10
5.70839540911124
 20
1.103794689588121
 10
5.627084095141591
 20
1.21995370954486
 10
5.522540977180661
 20
1.24318551353614
 10
4.221559953666151
 20
1.24318551353614
  0
LWPOLYLINE
  5
100AF
330
1F
100
AcDbEntity
  8
2
100
AcDbPolyline
 90
       64
 70
     1
 43
0.0
 10
4.145717691300511
 20
7.515772591194981
 10
4.006326867352605
 20
7.620315709156024
 10
3.379068159586573
 20
7.945560965034623
 10
3.018975197720998
 20
8.03848818099997
 10
2.28717337199415
 20
8.108183592973923
 10
2.240709764011477
 20
8.108183592973923
 10
1.532139742275909
 20
8.026872279004273
 10
0.8700333285231281
 20
7.852633749069277
 10
0.3589336407138362
 20
7.631931611151721
 10
0.0801519928179104
 20
7.434461277225331
 10
-0.0243911251431328
 20
7.318302257268705
 10
-0.0824706351213891
 20
7.190527335316382
 10
-0.1057024391126689
 20
7.027904707377083
 10
-0.1173183411084793
 20
6.78397076546802
 10
-0.0940865371170858
 20
6.435493705598255
 10
-0.0592388311301093
 20
6.203175665684888
 10
0.0104565808438437
 20
6.075400743732565
 10
0.1033837968091902
 20
6.040553037745589
 10
0.3240859347268596
 20
6.145096155706632
 10
0.6725629945968521
 20
6.354182391628605
 10
1.172046780410334
 20
6.551652725554881
 10
1.810921390171949
 20
6.644579941520227
 10
2.252325666007174
 20
6.574884529546161
 10
2.577570921885773
 20
6.354182391628605
 10
2.763425353816352
 20
6.040553037745589
 10
2.833120765790419
 20
5.657228271888734
 10
2.775041255812049
 20
5.180976290066418
 10
2.577570921885773
 20
4.646644798265847
 10
2.565955019890076
 20
4.61179709227887
 10
2.194246156028917
 20
4.007770188504345
 10
2.020007626093808
 20
3.775452148590979
 10
1.520523840280326
 20
3.217888852799128
 10
0.1498474047918634
 20
1.742669299349735
 10
-0.0476229291344126
 20
1.510351259436483
 10
-0.1753978510867356
 20
1.289649121518814
 10
-0.2450932630608023
 20
1.022483375618471
 10
-0.2683250670519683
 20
0.674006315748592
 10
-0.2334773610649918
 20
0.3255292558785996
 10
-0.140550145099759
 20
0.1280589219523236
 10
0.0104565808438437
 20
0.0235158039913941
 10
0.2427746207572099
 20
0.0002840000000006
 10
4.819440007049103
 20
0.0002840000000006
 10
4.923983125010032
 20
0.0351317059869771
 10
5.005294438979682
 20
0.1512907259437171
 10
5.063373948957938
 20
0.3603769618656898
 10
5.074989850953749
 20
0.6623904137528953
 10
5.051758046962355
 20
0.9644038656402145
 10
4.993678536983985
 20
1.161874199566491
 10
4.912367223014336
 20
1.278033219523117
 10
4.796208203057709
 20
1.312880925510093
 10
1.659914664228232
 20
1.312880925510093
 10
2.589186823881469
 20
2.26538488915461
 10
2.786657157807745
 20
2.462855223080886
 10
3.297756845617037
 20
3.008802616877155
 10
3.715929317460983
 20
3.485054598699357
 10
4.017942769348188
 20
3.879995266552022
 10
4.366419829218181
 20
4.449174464339571
 10
4.447731143187717
 20
4.600181190283173
 10
4.680049183101083
 20
5.250671702040485
 10
4.69166508509678
 20
5.308751212018741
 10
4.749744595075036
 20
6.017321233754309
 10
4.749744595075036
 20
6.156712057702329
 10
4.598737869131433
 20
6.853666177442086
 10
4.563890163144457
 20
6.946593393407433
  0
LWPOLYLINE
  5
100B0
330
1F
100
AcDbEntity
  8
3
100
AcDbPolyline
 90
       84
 70
     1
 43
0.0
 10
4.408450457223914
 20
7.724858827116954
 10
4.303907339262985
 20
7.806170141086604
 10
3.66503272950137
 20
8.108183592973809
 10
3.363019277614164
 20
8.177879004947876
 10
2.642833353882899
 20
8.247574416921829
 10
2.515058431930576
 20
8.235958514926132
 10
1.818104312190705
 20
8.166263102952179
 10
1.155997898437811
 20
7.9804086710216
 10
0.6681300146199121
 20
7.748090631108234
 10
0.4241960727109628
 20
7.573852101173237
 10
0.3312688567456163
 20
7.469308983212308
 10
0.2848052487629431
 20
7.353149963255682
 10
0.2615734447716633
 20
7.178911433320685
 10
0.2499575427759666
 20
6.923361589416039
 10
0.2615734447716633
 20
6.621348137528834
 10
0.3080370527543366
 20
6.447109607593838
 10
0.3661165627325929
 20
6.365798293624188
 10
0.4474278767022426
 20
6.342566489632794
 10
0.6797459166156088
 20
6.435493705598141
 10
1.063070682472464
 20
6.65619584351581
 10
1.574170370281756
 20
6.865282079437783
 10
2.166581372060698
 20
6.958209295403016
 10
2.666065157874179
 20
6.888513883429063
 10
3.002926315748475
 20
6.667811745511393
 10
3.200396649674751
 20
6.354182391628491
 10
3.270092061648818
 20
5.970857625771522
 10
3.177164845683471
 20
5.49460564394932
 10
2.886767295791849
 20
5.111280878092352
 10
2.42213121596523
 20
4.878962838179099
 10
1.794872508199312
 20
4.797651524209449
 10
1.097918388459554
 20
4.797651524209449
 10
0.9701434665072313
 20
4.77441972021817
 10
0.8888321525374678
 20
4.681492504252823
 10
0.8423685445549083
 20
4.518869876313524
 10
0.8191367405635148
 20
4.216856424426204
 10
0.8423685445549083
 20
3.914842972538885
 10
0.8888321525374678
 20
3.717372638612609
 10
0.9817593685028143
 20
3.636061324642959
 10
1.109534290455137
 20
3.61282952065168
 10
1.806488410195008
 20
3.61282952065168
 10
1.864567920173378
 20
3.61282952065168
 10
2.56152203991325
 20
3.519902304686333
 10
3.095853531713821
 20
3.287584264773081
 10
3.42109878759242
 20
2.904259498916112
 10
3.525641905553464
 20
2.404775713102516
 10
3.432714689588117
 20
1.951755535271595
 10
3.165548943687774
 20
1.591662573406019
 10
2.724144667852549
 20
1.37096043548835
 10
2.126444282129221
 20
1.288923127643933
 10
1.411547742342457
 20
1.37096043548835
 10
0.8656003485461881
 20
1.556814867419043
 10
0.4822755826893328
 20
1.731053397354039
 10
0.2731893467672464
 20
1.812364711323688
 10
0.1221826208236436
 20
1.696205691366949
 10
0.0757190128409704
 20
1.2896491215187
 10
0.0873349148366671
 20
0.9876356696314943
 10
0.1221826208236436
 20
0.7785494337095216
 10
0.1686462288063169
 20
0.6275427077658051
 10
0.2499575427759666
 20
0.5229995898048756
 10
0.4822755826893328
 20
0.3836087658568559
 10
0.9352957605202548
 20
0.1977543339262766
 10
1.562554468286059
 20
0.0583635099782569
 10
1.609018076268733
 20
0.0467476079826739
 10
2.329203999999997
 20
0.0002840000000006
 10
2.886767295791849
 20
0.0235158039912804
 10
3.56048961154044
 20
0.1629066279393001
 10
3.932198475401599
 20
0.2906815498916231
 10
4.536225379176237
 20
0.6391586097615019
 10
4.756927517093906
 20
0.8366289436877778
 10
5.163484086942042
 20
1.417424043471023
 10
5.291259008894365
 20
1.754285201345319
 10
5.395802126855408
 20
2.474471125076583
 10
5.268027204903085
 20
3.136577538829364
 10
4.919550145033206
 20
3.694140834621329
 10
4.350370947245544
 20
4.112313306465275
 10
4.292291437267288
 20
4.135545110456555
 10
3.590027345552691
 20
4.325989609904617
 10
4.222596025293221
 20
4.588565288287477
 10
4.66400030112856
 20
5.006737760131422
 10
4.931166047028789
 20
5.57591695791897
 10
5.024093262994136
 20
6.249639273667562
 10
5.024093262994136
 20
6.412261901606861
 10
4.873086537050305
 20
7.09760011935149
 10
4.838238831063443
 20
7.167295531324989
  0
LWPOLYLINE
  5
100B1
330
1F
100
AcDbEntity
  8
4
100
AcDbPolyline
 90
        4
 70
     1
 43
0.0
 10
3.009538999999997
 20
6.488092999999999
 10
3.009538999999997
 20
2.829083871365647
 10
0.8954448367889896
 20
2.829083871365647
 10
2.9979230980043
 20
6.488092999999999
  0
LWPOLYLINE
  5
100B2
330
1F
100
AcDbEntity
  8
4
100
AcDbPolyline
 90
       35
 70
     1
 43
0.0
 10
4.528497221751117
 20
7.771322435099627
 10
4.458801809777164
 20
7.887481455056253
 10
4.272947377846471
 20
7.968792769025903
 10
3.912854415980895
 20
8.026872279004273
 10
3.378522924180324
 20
8.03848818099997
 10
2.890655040362425
 20
8.026872279004273
 10
2.553793882488129
 20
7.9804086710216
 10
2.344707646566157
 20
7.92232916104323
 10
2.240164528605114
 20
7.8177860430823
 10
-0.2224066944757723
 20
3.45020689271238
 10
-0.3269498124367018
 20
3.229504754794824
 10
-0.3850293224150718
 20
3.008802616877155
 10
-0.4198770284020483
 20
2.753252772972509
 10
-0.4314929303976314
 20
2.40477571310263
 10
-0.4082611264063516
 20
2.033066849241358
 10
-0.3385657144323986
 20
1.800748809327992
 10
-0.2224066944757723
 20
1.707821593362759
 10
-0.0713999685320559
 20
1.684589789371365
 10
2.971966354332075
 20
1.684589789371365
 10
2.971966354332075
 20
0.2442179419089499
 10
3.006814060319051
 20
0.1396748239480203
 10
3.134588982271374
 20
0.0583635099783706
 10
3.366907022184627
 20
0.0118999019956973
 10
3.738615886045899
 20
0.0002840000000006
 10
4.121940651902868
 20
0.0118999019956973
 10
4.354258691816121
 20
0.0583635099783706
 10
4.482033613768444
 20
0.1396748239480203
 10
4.528497221751117
 20
0.2442179419089499
 10
4.528497221751117
 20
1.684589789371365
 10
5.225451341490988
 20
1.684589789371365
 10
5.411305773421567
 20
1.847212417310665
 10
5.469385283399937
 20
2.32346439913298
 10
5.399689871425984
 20
2.822948184946462
 10
5.225451341490988
 20
2.973954910890178
 10
4.528497221751117
 20
2.973954910890178
  0
LWPOLYLINE
  5
100B3
330
1F
100
AcDbEntity
  8
5
100
AcDbPolyline
 90
       59
 70
     1
 43
0.0
 10
4.59062019695682
 20
7.422849375229633
 10
4.579004294961237
 20
7.736478729112536
 10
4.532540686978564
 20
7.945564965034508
 10
4.451229373008914
 20
8.061723984991135
 10
4.346686255047871
 20
8.096571690978225
 10
0.5715181064568924
 20
8.096571690978225
 10
0.2811205565652699
 20
7.992028573017182
 10
0.1765774386043404
 20
7.643551513147303
 10
0.1765774386043404
 20
4.182012718439227
 10
0.2578887525739901
 20
3.856767462560514
 10
0.5134385964785224
 20
3.763840246595281
 10
1.059385990274905
 20
3.798687952582258
 10
1.709876502031989
 20
3.833535658569234
 10
1.779571914006056
 20
3.833535658569234
 10
2.46491013175023
 20
3.752224344599584
 10
2.976009819559408
 20
3.519906304686332
 10
3.266407369451031
 20
3.12496563683378
 10
3.359334585416377
 20
2.602250047028791
 10
3.254791467455448
 20
2.009839045249963
 10
2.941162113572432
 20
1.603282475401715
 10
2.44167832775895
 20
1.359348533492765
 10
1.791187816001752
 20
1.289653121518699
 10
1.082617794266184
 20
1.359348533492765
 10
0.5831340084525891
 20
1.521971161432065
 10
0.2578887525739901
 20
1.672977887375668
 10
0.0720343206432972
 20
1.742673299349621
 10
-0.0208928953219356
 20
1.719441495358341
 10
-0.0789724053003056
 20
1.614898377397298
 10
-0.1254360132829788
 20
1.417428043471022
 10
-0.1370519152786756
 20
1.127030493579399
 10
-0.1254360132829788
 20
0.8482488456834734
 10
-0.102204209291699
 20
0.6507785117571974
 10
-0.0673565033046089
 20
0.5230035898048744
 10
0.0139548106650409
 20
0.4184604718438312
 10
0.2346569485825967
 20
0.3023014518872049
 10
0.6644453224222389
 20
0.1629106279392989
 10
1.256856324201067
 20
0.0467516079826726
 10
1.953810443941052
 20
0.0002879999999994
 10
2.569453249711273
 20
0.0351357059869759
 10
3.243175565459751
 20
0.1861424319305787
 10
3.638116233312417
 20
0.3371491578742951
 10
4.218911333095548
 20
0.7204739237311504
 10
4.474461177000194
 20
0.9760237676357963
 10
4.857785942857163
 20
1.568434769414738
 10
4.997176766805183
 20
1.998223143254267
 10
5.078488080774719
 20
2.718409066985531
 10
5.055256276783439
 20
3.06688612685541
 10
4.892633648844139
 20
3.728992540608305
 10
4.81132233487449
 20
3.914846972538884
 10
4.381533961034847
 20
4.460794366335152
 10
4.195679529104268
 20
4.600185190283172
 10
3.533573115351373
 20
4.902198642170378
 10
3.127016545503125
 20
4.995125858135724
 10
2.395214719776277
 20
5.053205368114094
 10
1.942194541945355
 20
5.041589466118397
 10
1.512406168105713
 20
5.006741760131421
 10
1.512406168105713
 20
6.714279353494065
 10
4.346686255047871
 20
6.714279353494065
 10
4.532540686978564
 20
6.888517883429062
  0
LWPOLYLINE
  5
100B4
330
1F
100
AcDbEntity
  8
6
100
AcDbPolyline
 90
       18
 70
     1
 43
0.0
 10
2.506198655492888
 20
3.926458874534582
 10
2.994066539310786
 20
3.845147560564932
 10
3.319311795189385
 20
3.601213618655983
 10
3.493550325124268
 20
3.194657048807734
 10
3.551629835102638
 20
2.648709655011466
 10
3.481934423128685
 20
2.091146359219614
 10
3.261232285211015
 20
1.638126181388692
 10
2.912755225341137
 20
1.34772863149707
 10
2.413271439527541
 20
1.243185513536027
 10
1.913787653713946
 20
1.34772863149707
 10
1.553694691848371
 20
1.719437495358228
 10
1.542078789852674
 20
1.731053397354039
 10
1.332992553930701
 20
2.416391615098213
 10
1.286528945948028
 20
2.753252772972509
 10
1.251681239961052
 20
3.508286402690636
 10
1.530462887856977
 20
3.682524932625633
 10
1.844092241739993
 20
3.810299854577956
 10
2.169337497618592
 20
3.891611168547605
  0
LWPOLYLINE
  5
100B5
330
1F
100
AcDbEntity
  8
6
100
AcDbPolyline
 90
       68
 70
     1
 43
0.0
 10
4.643524622695175
 20
7.387997669242658
 10
4.631908720699478
 20
7.597083905164631
 10
4.620292818703781
 20
7.748090631108234
 10
4.573829210721108
 20
7.852633749069277
 10
4.504133798747155
 20
7.94556096503451
 10
4.318279366816576
 20
8.038488180999856
 10
3.969802306946583
 20
8.1430312989609
 10
3.540013933107055
 20
8.212726710934852
 10
3.063761951284739
 20
8.235958514926132
 10
2.436503243518821
 20
8.201110808939156
 10
1.786012731761623
 20
8.038488180999856
 10
1.449151573887328
 20
7.887481455056253
 10
0.8799723760997793
 20
7.515772591194981
 10
0.6592702381822235
 20
7.306686355273008
 10
0.2527136683338611
 20
6.725891255489763
 10
0.1249387463815381
 20
6.458725509589534
 10
-0.1189951955272974
 20
5.785003193840943
 10
-0.1886906075013641
 20
5.482989741953624
 10
-0.2932337254622936
 20
4.786035622213753
 10
-0.3164655294534597
 20
4.507253974320101
 10
-0.3396973334449669
 20
3.810299854577956
 10
-0.3396973334449669
 20
3.45020689271238
 10
-0.2932337254622936
 20
2.753252772972509
 10
-0.2700019214710139
 20
2.50931883106356
 10
-0.1422269995186909
 20
1.823980613319272
 10
-0.1073792935317144
 20
1.707821593362645
 10
0.1597864523686283
 20
1.057331081605447
 10
0.1946341583556048
 20
1.010867473622774
 10
0.6592702381822235
 20
0.4881518838178991
 10
0.7289656501561765
 20
0.4300723738395291
 10
1.367840259917678
 20
0.1280589219523236
 10
1.600158299831044
 20
0.0699794119739536
 10
2.331960125557892
 20
0.0002840000000006
 10
2.877907519354046
 20
0.0351317059869771
 10
3.540013933107055
 20
0.2093702359219733
 10
3.865259188985654
 20
0.3719928638612728
 10
4.411206582781809
 20
0.8017812377008013
 10
4.631908720699478
 20
1.057331081605447
 10
4.957153976578077
 20
1.684589789371365
 10
5.073312996534703
 20
2.079530457223917
 10
5.143008408508656
 20
2.799716380955182
 10
5.131392506513073
 20
3.090113930846805
 10
5.015233486556333
 20
3.763836246595282
 10
4.957153976578077
 20
3.914842972538885
 10
4.608676916708198
 20
4.518869876313524
 10
4.504133798747155
 20
4.623412994274453
 10
3.90010689497263
 20
4.983505956140029
 10
3.609709345081008
 20
5.076433172105375
 10
2.877907519354046
 20
5.157744486075025
 10
2.366807831544868
 20
5.111280878092352
 10
1.925403555709643
 20
5.006737760131422
 10
1.542078789852674
 20
4.867346936183402
 10
1.228449435969772
 20
4.693108406248406
 10
1.228449435969772
 20
4.878962838179099
 10
1.332992553930701
 20
5.57591695791897
 10
1.356224357921981
 20
5.680460075880013
 10
1.646621907813604
 20
6.319334685641515
 10
1.669853711804997
 20
6.354182391628491
 10
2.204185203605569
 20
6.81881847145511
 10
2.343576027553588
 20
6.876897981433366
 10
3.040530147293346
 20
7.004672903385689
 10
3.563245737098335
 20
6.958209295403016
 10
3.958186404950887
 20
6.876897981433366
 10
4.236968052846812
 20
6.795586667463716
 10
4.422822484777505
 20
6.749123059481043
 10
4.527365602738435
 20
6.783970765468133
 10
4.597061014712502
 20
6.888513883429063
 10
4.631908720699478
 20
7.07436831535987
  0
LWPOLYLINE
  5
100B6
330
1F
100
AcDbEntity
  8
7
100
AcDbPolyline
 90
       26
 70
     1
 43
0.0
 10
5.032553286508591
 20
7.306686355273008
 10
5.009321482517311
 20
7.655163415143001
 10
4.939626070543245
 20
7.864249651064974
 10
4.823467050586732
 20
7.968792769025903
 10
4.637612618656039
 20
7.9804086710216
 10
-0.0784435915837598
 20
7.9804086710216
 10
-0.182986709544803
 20
7.94556096503451
 10
-0.2642980235144528
 20
7.829401945077883
 10
-0.322377533492709
 20
7.608699807160328
 10
-0.3456093374841025
 20
7.295070453277312
 10
-0.2759139255101495
 20
6.749123059481157
 10
-0.0784435915837598
 20
6.586500431541857
 10
3.25532028117188
 20
6.586500431541857
 10
0.4442719982211152
 20
0.3719928638612728
 10
0.3978083902384419
 20
0.1977543339262766
 10
0.5023515081993715
 20
0.0815953139696504
 10
0.7811331560954109
 20
0.0118999019956973
 10
1.292232843904589
 20
-0.0113319019956961
 10
1.698789413752838
 20
0.0002840000000006
 10
1.965955159653181
 20
0.0351317059869771
 10
2.12857778759248
 20
0.1048271179609301
 10
2.221505003557827
 20
0.2326020399132531
 10
4.835082952582315
 20
6.307718783645818
 10
4.928010168547662
 20
6.528420921563487
 10
4.986089678526032
 20
6.749123059481157
 10
5.020937384513008
 20
6.993057001390106
  0
LWPOLYLINE
  5
100B7
330
1F
100
AcDbEntity
  8
9
100
AcDbPolyline
 90
       16
 70
     1
 43
0.0
 10
1.226794961624247
 20
6.162520008700007
 10
1.43588119754622
 20
6.592308382539649
 10
1.784358257416098
 20
6.882705932431271
 10
2.272226141233997
 20
6.987249050392201
 10
2.794941731038985
 20
6.871090030435575
 10
3.166650594900144
 20
6.499381166574302
 10
3.178266496895841
 20
6.476149362583023
 10
3.387352732817813
 20
5.790811144838734
 10
3.42220043880479
 20
5.442334084968856
 10
3.457048144791766
 20
4.687300455250615
 10
2.899484848999915
 20
4.408518807354689
 10
2.225762533251324
 20
4.292359787398063
 10
1.726278747437842
 20
4.373671101367712
 10
1.401033491559243
 20
4.617605043276662
 10
1.21517905962855
 20
5.035777515120607
 10
1.15709954965018
 20
5.604956712908155
  0
LWPOLYLINE
  5
100B8
330
1F
100
AcDbEntity
  8
9
100
AcDbPolyline
 90
       66
 70
     1
 43
0.0
 10
4.862572286267206
 20
6.383222146617676
 10
4.827724580280229
 20
6.499381166574302
 10
4.548942932384303
 20
7.1498716783315
 10
4.514095226397327
 20
7.196335286314174
 10
4.049459146570708
 20
7.730666778114745
 10
3.968147832601058
 20
7.788746288093115
 10
3.329273222839443
 20
8.09075973998032
 10
3.096955182926191
 20
8.160455151954388
 10
2.365153357199343
 20
8.23015056392834
 10
1.807590061407378
 20
8.183686955945667
 10
1.15709954965018
 20
8.021064328006368
 10
0.8318542937715812
 20
7.870057602062765
 10
0.2859068999753127
 20
7.45188513021882
 10
0.0768206640534537
 20
7.219567090305567
 10
-0.2484245918251453
 20
6.592308382539649
 10
-0.3529677097861885
 20
6.20898361668268
 10
-0.4226631217601415
 20
5.488797692951529
 10
-0.4110472197644448
 20
5.151936535077233
 10
-0.2948881998078186
 20
4.466598317333059
 10
-0.2484245918251453
 20
4.303975689393759
 10
0.1000524680447334
 20
3.711564687614818
 10
0.216211488001246
 20
3.595405667658305
 10
0.8202383917759981
 20
3.223696803796919
 10
1.15709954965018
 20
3.130769587831573
 10
1.900517277372725
 20
3.06107417585762
 10
2.132835317285977
 20
3.072690077853316
 10
2.806557633034569
 20
3.200464999805526
 10
2.853021241017242
 20
3.212080901801222
 10
3.491895850778743
 20
3.502478451692845
 10
3.491895850778743
 20
3.339855823753545
 10
3.375736830822117
 20
2.642901704013674
 10
3.352505026830837
 20
2.549974488048328
 10
3.050491574943518
 20
1.911099878286826
 10
3.015643868956541
 20
1.864636270304153
 10
2.469696475160386
 20
1.411616092473231
 10
2.307073847221087
 20
1.341920680499278
 10
1.598503825485519
 20
1.225761660542538
 10
1.052556431689251
 20
1.272225268525212
 10
0.6227680578496084
 20
1.365152484490558
 10
0.2859068999753127
 20
1.469695602451488
 10
0.0768206640534537
 20
1.516159210434161
 10
-0.0161065519118928
 20
1.492927406442881
 10
-0.0858019638858458
 20
1.400000190477535
 10
-0.1206496698728223
 20
1.214145758546955
 10
-0.1322655718685191
 20
0.8889005026683563
 10
-0.0974178658815426
 20
0.5404234427983639
 10
-0.0044906499161961
 20
0.3545690108677846
 10
0.2162114880013597
 20
0.2267940889154616
 10
0.5763044498669352
 20
0.1106350689588353
 10
1.064172333684834
 20
0.0177078529934889
 10
1.586887923489822
 20
-0.0171398529934876
 10
2.23737843524702
 20
0.0177078529934889
 10
2.887868947004218
 20
0.1803304809327884
 10
3.247961908869907
 20
0.3313372068763911
 10
3.817141106657456
 20
0.7146619727333601
 10
4.037843244575011
 20
0.9237482086553328
 10
4.44439981442326
 20
1.492927406442881
 10
4.58379063837128
 20
1.771709054338807
 10
4.827724580280229
 20
2.445431370087398
 10
4.909035894249879
 20
2.7590607239703
 10
5.013579012210808
 20
3.467630745705868
 10
5.036810816202202
 20
3.758028295597491
 10
5.060042620193595
 20
4.466598317333059
 10
5.060042620193595
 20
4.780227671215961
 10
5.013579012210808
 20
5.477181790955832
 10
4.990347208219529
 20
5.697883928873502
  0
LWPOLYLINE
  5
100B9
330
1F
100
AcDbEntity
  8
8
100
AcDbPolyline
 90
       16
 70
     1
 43
0.0
 10
2.399170999999999
 20
3.566365912669006
 10
2.968350197787434
 20
3.252736558786104
 10
3.374906767635796
 20
2.927491302907391
 10
3.618840709544745
 20
2.579014243037513
 10
3.688536121518698
 20
2.160841771193567
 10
3.688536121518698
 20
2.044682751236941
 10
3.398138571627076
 20
1.452271749457999
 10
3.212284139696497
 20
1.324496827505676
 10
2.492098215965232
 20
1.196721905553467
 10
2.166852960086633
 20
1.20833780754905
 10
1.574441958307691
 20
1.440655847462416
 10
1.481514742342458
 20
1.533583063427649
 10
1.260812604424789
 20
2.172457673189264
 10
1.330508016398856
 20
2.579014243037513
 10
1.539594252320715
 20
2.939107204903088
 10
1.89968721418629
 20
3.252736558786104
  0
LWPOLYLINE
  5
100BA
330
1F
100
AcDbEntity
  8
8
100
AcDbPolyline
 90
       16
 70
     1
 43
0.0
 10
3.258747747679056
 20
6.81881847145511
 10
3.444602179609749
 20
6.528420921563487
 10
3.514297591583702
 20
6.133480253710822
 10
3.514297591583702
 20
6.110248449719542
 10
3.270363649674753
 20
5.471373839958041
 10
3.154204629718127
 20
5.343598918005718
 10
2.573409529934882
 20
4.902194642170379
 10
2.06230984212559
 20
5.204208094057698
 10
1.713832782255711
 20
5.49460564394932
 10
1.516362448329435
 20
5.808234997832223
 10
1.446667036355368
 20
6.168327959697912
 10
1.446667036355368
 20
6.203175665684888
 10
1.702216880260014
 20
6.830434373450693
 10
1.783528194229778
 20
6.888513883429063
 10
2.468866411973952
 20
7.062752413364059
 10
2.933502491800457
 20
7.004672903385689
  0
LWPOLYLINE
  5
100BB
330
1F
100
AcDbEntity
  8
8
100
AcDbPolyline
 90
       50
 70
     1
 43
0.0
 10
4.478417457223916
 20
7.70162702312556
 10
4.350642535271593
 20
7.794554239090907
 10
3.700152023514395
 20
8.096567690978226
 10
3.316827257657426
 20
8.189494906943459
 10
2.573409529934882
 20
8.247574416921829
 10
2.073925744121286
 20
8.212726710934852
 10
1.411819330368392
 20
8.08495178898253
 10
1.156269486463859
 20
8.00364047501288
 10
0.5754743866806145
 20
7.655163415142887
 10
0.4593153667239882
 20
7.550620297181958
 10
0.0643746988713225
 20
6.969825197398713
 10
0.0062951888930662
 20
6.807202569459413
 10
-0.1098638310636737
 20
6.098632547723845
 10
-0.0169366150983272
 20
5.482989741953624
 10
0.2618450327977122
 20
4.971890054144446
 10
0.6916334066372407
 20
4.530485778309107
 10
1.249196702429092
 20
4.158776914447948
 10
1.167885388459556
 20
4.112313306465275
 10
0.5754743866802734
 20
3.728988540608078
 10
0.0759906008670193
 20
3.252736558786104
 10
-0.2260228510203
 20
2.695173262994139
 10
-0.3305659689812295
 20
2.056298653232638
 10
-0.3189500669855327
 20
1.847212417310665
 10
-0.1563274390462333
 20
1.173490101562074
 10
-0.098247929067977
 20
1.057331081605447
 10
0.354772248762945
 20
0.5346154918005723
 10
0.540626680693638
 20
0.4068405698482493
 10
1.214348996442116
 20
0.1280589219523236
 10
1.655753272277455
 20
0.0467476079826739
 10
2.399170999999999
 20
0.0002840000000006
 10
2.97996609978313
 20
0.0235158039912804
 10
3.642072513536025
 20
0.1512907259436034
 10
3.955701867419041
 20
0.2558338439045329
 10
4.548112869197869
 20
0.5926950017788286
 10
4.710735497137168
 20
0.7320858257268483
 10
5.10567616498972
 20
1.312880925510093
 10
5.198603380955067
 20
1.556814867419043
 10
5.291530596920413
 20
2.277000791150193
 10
5.186987478959484
 20
2.904259498916112
 10
4.873358125076468
 20
3.45020689271238
 10
4.373874339262873
 20
3.926458874534582
 10
4.315794829284616
 20
3.972922482517255
 10
3.700152023514395
 20
4.344631346378527
 10
4.28094712329764
 20
4.739572014231079
 10
4.699119595141585
 20
5.204208094057698
 10
4.966285341041814
 20
5.726923683862573
 10
5.059212557007161
 20
6.284486979654538
 10
5.059212557007161
 20
6.400645999611164
 10
4.919821733059369
 20
7.08598421735477
 10
4.896589929067861
 20
7.144063727333709
  0
LWPOLYLINE
  5
100BC
330
1F
100
AcDbEntity
  8
0
100
AcDbPolyline
 90
       27
 70
     1
 43
0.0
 10
2.863807079826505
 20
6.911745687420456
 10
3.177436433709521
 20
6.725891255489763
 10
3.409754473622773
 20
6.365798293624188
 10
3.572377101562073
 20
5.819850899827919
 10
3.572377101562073
 20
5.785003193840943
 10
3.665304317527419
 20
5.076433172105375
 10
3.676920219523116
 20
4.809267426205146
 10
3.688536121518699
 20
4.065849698482602
 10
3.688536121518699
 20
3.914842972538885
 10
3.676920219523116
 20
3.217888852799014
 10
3.595608905553466
 20
2.520934733059143
 10
3.44460217960975
 20
1.974987339262988
 10
3.212284139696497
 20
1.591662573406019
 10
2.887038883817898
 20
1.359344533492767
 10
2.457250509978256
 20
1.278033219523117
 10
1.911303116182101
 20
1.417424043471023
 10
1.551210154316526
 20
1.882060123297641
 10
1.481514742342459
 20
2.033066849241244
 10
1.330508016398857
 20
2.764868674968092
 10
1.284044408416183
 20
3.380511480738313
 10
1.260812604424904
 20
4.170392816443531
 10
1.272428506420487
 20
4.7163402102398
 10
1.31889211440316
 20
5.390062525988391
 10
1.34212391839444
 20
5.59914876191025
 10
1.516362448329436
 20
6.261255175663145
 10
1.888071312190708
 20
6.795586667463716
 10
2.492098215965346
 20
6.958209295403016
  0
LWPOLYLINE
  5
100BD
330
1F
100
AcDbEntity
  8
0
100
AcDbPolyline
 90
       36
 70
     1
 43
0.0
 10
4.466801555228334
 20
7.550620297181958
 10
3.909238259436369
 20
7.968792769025903
 10
3.305211355661844
 20
8.177879004947876
 10
2.550177725943603
 20
8.247574416921829
 10
1.818375900216755
 20
8.166263102952179
 10
1.202733094446534
 20
7.957176867030206
 10
0.7613288186111946
 20
7.655163415142887
 10
0.2966927387845759
 20
7.120831923342202
 10
-0.0053207131026296
 20
6.528420921563487
 10
-0.2027910470289056
 20
5.808234997832223
 10
-0.2608705570071619
 20
5.529453349936297
 10
-0.3421818709769253
 20
4.832499230196426
 10
-0.3654136749682051
 20
4.089081502473881
 10
-0.3654136749682051
 20
3.763836246595282
 10
-0.3189500669855319
 20
3.032034420868435
 10
-0.2376387530158821
 20
2.36992800711554
 10
-0.0750161250765826
 20
1.696205691366949
 10
0.2037655228193431
 20
1.092178787592424
 10
0.4941630727109656
 20
0.6972381197398718
 10
1.051726368502817
 20
0.2790656478959264
 10
1.644137370281759
 20
0.0699794119739536
 10
2.399171
 20
0.0002840000000006
 10
3.142588727722544
 20
0.0699794119739536
 10
3.769847435488349
 20
0.2906815498916231
 10
4.199635809327991
 20
0.5810790997832456
 10
4.66427188915461
 20
1.115410591583817
 10
4.966285341041815
 20
1.707821593362645
 10
5.163755674968091
 20
2.42800751709391
 10
5.210219282950765
 20
2.706789164989836
 10
5.291530596920414
 20
3.403743284729707
 10
5.314762400911808
 20
4.147161012452251
 10
5.314762400911808
 20
4.484022170326547
 10
5.279914694924831
 20
5.215823996053395
 10
5.198603380955181
 20
5.877930409806289
 10
5.035980753015768
 20
6.551652725554767
 10
4.757199105119843
 20
7.155679629329406
  0
LWPOLYLINE
  5
100BE
330
1F
100
AcDbEntity
  8
E
100
AcDbPolyline
 90
       37
 70
     1
 43
0.0
 10
1.602994475401829
 20
3.522510402690749
 10
4.007486188504352
 20
3.522510402690749
 10
4.112029306465282
 20
3.557358108677724
 10
4.193340620435045
 20
3.661901226638768
 10
4.239804228417605
 20
3.847755658569348
 10
4.251420130413301
 20
4.13815320846097
 10
4.239804228417605
 20
4.440166660348289
 10
4.193340620435045
 20
4.626021092278869
 10
4.112029306465282
 20
4.730564210239912
 10
4.007486188504352
 20
4.765411916226888
 10
1.602994475401829
 20
4.765411916226888
 10
1.602994475401829
 20
6.705267549502786
 10
4.448890464339577
 20
6.705267549502786
 10
4.541817680304923
 20
6.740115255489876
 10
4.623128994274572
 20
6.844658373450805
 10
4.669592602257246
 20
7.042128707377081
 10
4.681208504252942
 20
7.332526257268704
 10
4.669592602257246
 20
7.64615561115172
 10
4.623128994274572
 20
7.843625945077996
 10
4.541817680304923
 20
7.948169063038925
 10
4.448890464339577
 20
7.971400867030319
 10
0.4762519818223155
 20
7.971400867030319
 10
0.1393908239480198
 20
7.855241847073692
 10
0.0
 20
7.460301179221027
 10
0.0
 20
0.5256076878092908
 10
0.1393908239480198
 20
0.1422829219523219
 10
0.4762519818223155
 20
0.0145079999999989
 10
4.47212226833097
 20
0.0145079999999989
 10
4.5766653862919
 20
0.0493557059869754
 10
4.646360798265967
 20
0.1538988239480185
 10
4.692824406248527
 20
0.3513691578742946
 10
4.704440308244223
 20
0.641766707765917
 10
4.692824406248527
 20
0.9437801596532363
 10
4.646360798265967
 20
1.141250493579512
 10
4.5766653862919
 20
1.245793611540442
 10
4.47212226833097
 20
1.280641317527532
 10
1.602994475401829
 20
1.280641317527532
  0
LWPOLYLINE
  5
100BF
330
1F
100
AcDbEntity
  8
W
100
AcDbPolyline
 90
       51
 70
     1
 43
0.0
 10
1.718897273766095
 20
7.701909023125786
 10
1.672433665783421
 20
7.887763455056252
 10
1.556274645826795
 20
7.980690671021598
 10
1.300724801922149
 20
8.027154279004272
 10
0.8360887220955302
 20
8.038770180999968
 10
0.3598367402733285
 20
8.027154279004272
 10
0.1042868963686825
 20
7.934227063038925
 10
0.0345914843947295
 20
7.748372631108346
 10
0.0926709943729858
 20
7.388279669242657
 10
1.893135803700977
 20
0.4419702758352244
 10
1.986063019666324
 20
0.2096522359219719
 10
2.171917451597017
 20
0.0818773139696489
 10
2.508778609471199
 20
0.0121819019956959
 10
3.066341905263164
 20
0.0005659999999992
 10
3.623905201055015
 20
0.0121819019956959
 10
3.949150456933614
 20
0.0818773139696489
 10
4.111773084872913
 20
0.2212681379176686
 10
4.20470030083826
 20
0.4419702758352244
 10
5.401138206391726
 20
5.494887643949319
 10
5.424370010383005
 20
5.494887643949319
 10
6.690503327910426
 20
0.4419702758352244
 10
6.771814641880189
 20
0.2096522359219719
 10
6.957669073810768
 20
0.0818773139696489
 10
7.294530231685064
 20
0.0121819019956959
 10
7.852093527476915
 20
0.0005659999999992
 10
8.363193215286207
 20
0.0121819019956959
 10
8.700054373160503
 20
0.0818773139696489
 10
8.89752470708678
 20
0.2096522359219719
 10
8.990451923052012
 20
0.4419702758352244
 10
10.8257644383671
 20
7.376663767247074
 10
10.88384394834547
 20
7.736756729112649
 10
10.8257644383671
 20
7.934227063038925
 10
10.61667820244512
 20
8.027154279004272
 10
10.18688982860548
 20
8.038770180999968
 10
9.733869650774556
 20
8.027154279004272
 10
9.48993570886572
 20
7.969074769025902
 10
9.37377668890898
 20
7.852915749069275
 10
9.327313080926308
 20
7.678677219134279
 10
7.933404841446566
 20
1.603560475401714
 10
7.921788939450868
 20
1.603560475401714
 10
6.423337582010197
 20
7.655445415142999
 10
6.353642170036244
 20
7.852915749069275
 10
6.214251346088224
 20
7.969074769025902
 10
5.947085600187881
 20
8.027154279004272
 10
5.470833618365679
 20
8.038770180999968
 10
5.029429342530453
 20
8.027154279004272
 10
4.773879498625807
 20
7.969074769025902
 10
4.634488674677902
 20
7.852915749069275
 10
4.576409164699532
 20
7.655445415142999
 10
3.12442141524142
 20
1.603560475401714
 10
3.112805513245837
 20
1.603560475401714
  0
LWPOLYLINE
  5
100C0
330
1F
100
AcDbEntity
  8
Q
100
AcDbPolyline
 90
       32
 70
     1
 43
0.0
 10
4.705583070982163
 20
6.712359545292202
 10
4.844973894930183
 20
6.631048231322552
 10
5.332841778748082
 20
6.143180347504653
 10
5.449000798704708
 20
5.957325915574074
 10
5.669702936622377
 20
5.271987697829786
 10
5.727782446600747
 20
4.865431127981537
 10
5.762630152587723
 20
4.13362930225469
 10
5.751014250592027
 20
3.738688634402138
 10
5.669702936622377
 20
3.041734514662266
 10
5.600007524648424
 20
2.78618467075762
 10
5.321225876752385
 20
2.158925962991702
 10
5.205066856795759
 20
2.007919237048099
 10
4.670735364995186
 20
1.554899059217178
 10
4.403569619094957
 20
1.438740039260551
 10
3.683383695363693
 20
1.334196921299508
 10
3.334906635493814
 20
1.345812823295205
 10
2.684416123736616
 20
1.531667255225784
 10
2.556641201784293
 20
1.601362667199851
 10
2.057157415970698
 20
2.089230551017749
 10
1.952614298009655
 20
2.286700884944025
 10
1.731912160092099
 20
2.983655004683896
 10
1.662216748118032
 20
3.425059280519122
 10
1.627369042131055
 20
4.156861106246083
 10
1.638984944126752
 20
4.528569970107242
 10
1.731912160092099
 20
5.21390818785153
 10
1.789991670070355
 20
5.457842129760479
 10
2.080389219961978
 20
6.09671673952198
 10
2.184932337922907
 20
6.23610756347
 10
2.730879731719176
 20
6.689127741300922
 10
2.998045477619518
 20
6.805286761257548
 10
3.718231401350669
 20
6.909829879218591
 10
4.055092559224965
 20
6.898213977222895
  0
LWPOLYLINE
  5
100C1
330
1F
100
AcDbEntity
  8
Q
100
AcDbPolyline
 90
       63
 70
     1
 43
0.0
 10
6.506047880310268
 20
7.269922841084167
 10
5.994948192500976
 20
7.688095312928112
 10
5.356073582739361
 20
8.001724666811015
 10
5.193450954800062
 20
8.048188274793688
 10
4.519728639051584
 20
8.19919500073729
 10
3.776310911329039
 20
8.245658608719964
 10
3.47429745944172
 20
8.234042706724267
 10
2.754111535710569
 20
8.141115490759034
 10
2.115236925948954
 20
7.955261058828341
 10
2.057157415970698
 20
7.932029254837062
 10
1.429898708204779
 20
7.583552194967069
 10
0.9071831183999044
 20
7.130532017136147
 10
0.8491036084215344
 20
7.060836605162194
 10
0.4657788425645655
 20
6.491657407374646
 10
0.1869971946686397
 20
5.817935091626054
 10
0.0940699787034069
 20
5.504305737743152
 10
-0.022089041253333
 20
4.818967519998864
 10
-0.0685526492358925
 20
4.07554979227632
 10
-0.0569367472403095
 20
3.587681908458421
 10
0.0243745667293402
 20
2.879111886722967
 10
0.16376539067736
 20
2.240237276961352
 10
0.1869971946686397
 20
2.193773668978679
 10
0.4657788425645655
 20
1.520051353230201
 10
0.8607195104172312
 20
0.9624880574382362
 10
1.360203296230826
 20
0.54431558559429
 10
2.010693807988025
 20
0.2306862317113882
 10
2.208164141914301
 20
0.1726067217330183
 10
2.870270555667195
 20
0.044831799780809
 10
3.625304185385436
 20
-0.0016318082018643
 10
3.834390421307295
 20
-0.0016318082018643
 10
4.53134454104728
 20
0.0912954077633685
 10
5.205066856795759
 20
0.311997545681038
 10
5.414153092717731
 20
0.0912954077633685
 10
5.948484584518303
 20
-0.3733406720631365
 10
6.122723114453299
 20
-0.5011155940154595
 10
6.715134116232127
 20
-0.8728244578767317
 10
6.784829528206194
 20
-0.9076721638637082
 10
7.435320039963392
 20
-1.198069713755331
 10
7.958035629768267
 20
-1.302612831716374
 10
8.050962845733613
 20
-1.27938102772498
 10
8.132274159703263
 20
-1.186453811759634
 10
8.190353669681633
 20
-0.9773675758377749
 10
8.213585473672913
 20
-0.6172746139720857
 10
8.178737767685936
 20
-0.1874862401325572
 10
8.08581055172059
 20
0.0332158977851122
 10
7.89995611979001
 20
0.1377590157460418
 10
7.574710863911411
 20
0.2655339376983648
 10
7.086842980089648
 20
0.5210837816050571
 10
6.98229986213247
 20
0.5791632915813811
 10
6.401504762349225
 20
1.032183469412303
 10
6.424736566340504
 20
1.043799371407886
 10
6.854524940180147
 20
1.612978569195434
 10
6.90098854816282
 20
1.694289883165084
 10
7.191386098054442
 20
2.344780394922395
 10
7.237849706037116
 20
2.519018924857278
 10
7.400472333976415
 20
3.215973044597149
 10
7.423704137967695
 20
3.494754692493188
 10
7.458551843954671
 20
4.226556518220036
 10
7.446935941959088
 20
4.656344892059565
 10
7.377240529985022
 20
5.376530815790829
 10
7.226233804041419
 20
6.01540542555233
 10
7.214617902045722
 20
6.061869033535004
 10
6.912604450158403
 20
6.723975447287899
  0
LWPOLYLINE
  5
100C2
330
1F
100
AcDbEntity
  8
Y
100
AcDbPolyline
 90
       35
 70
     1
 43
0.0
 10
1.769357464923871
 20
7.748094631108346
 10
1.676430248958638
 20
7.887485455056252
 10
1.525423523015036
 20
7.980412671021599
 10
1.26987367911039
 20
8.026876279004272
 10
0.8168535012794678
 20
8.038492180999969
 10
0.2825220094788961
 20
8.026876279004272
 10
0.0269721655742501
 20
7.945564965034622
 10
-0.0078755404127264
 20
7.748094631108346
 10
0.1315152835352933
 20
7.388001669242657
 10
2.31530485872014
 20
3.055270224859827
 10
2.31530485872014
 20
0.2558378439046454
 10
2.350152564707116
 20
0.1396788239480191
 10
2.477927486659439
 20
0.0699834119739524
 10
2.733477330564085
 20
0.0119039019956961
 10
3.116802096421054
 20
0.0002879999999994
 10
3.511742764273606
 20
0.0119039019956961
 10
3.755676706182555
 20
0.0699834119739524
 10
3.895067530130575
 20
0.1396788239480191
 10
3.929915236117552
 20
0.2558378439046454
 10
3.929915236117552
 20
3.055270224859827
 10
6.113704811302512
 20
7.388001669242657
 10
6.253095635250531
 20
7.748094631108346
 10
6.229863831259138
 20
7.945564965034622
 10
5.962698085358909
 20
8.026876279004272
 10
5.41675069156264
 20
8.038492180999969
 10
4.986962317722998
 20
8.026876279004272
 10
4.743028375814049
 20
7.968796769025902
 10
4.603637551866143
 20
7.875869553060669
 10
4.52232623789638
 20
7.724862827116953
 10
3.651133588221626
 20
5.773391291845359
 10
3.407199646312677
 20
5.180980290066417
 10
3.17488160639931
 20
4.530489778309219
 10
3.163265704403727
 20
4.530489778309219
 10
2.907715860499081
 20
5.192596192062114
 10
2.652166016594435
 20
5.785007193840942
  0
LWPOLYLINE
  5
100C3
330
1F
100
AcDbEntity
  8
T
100
AcDbPolyline
 90
       29
 70
     1
 43
0.0
 10
6.086732645728261
 20
7.329918159264403
 10
6.075116743732565
 20
7.643547513147305
 10
6.017037233754309
 20
7.852633749069278
 10
5.947341821780242
 20
7.968792769025904
 10
5.842798703819312
 20
7.992024573017298
 10
0.2439339419089492
 20
7.992024573017298
 10
0.1393908239480197
 20
7.968792769025904
 10
0.05807950997837
 20
7.852633749069278
 10
0.0232318039913935
 20
7.643547513147305
 10
0.0
 20
7.329918159264403
 10
0.0232318039913935
 20
7.027904707377084
 10
0.05807950997837
 20
6.830434373450808
 10
0.1393908239480197
 20
6.714275353494181
 10
0.2439339419089492
 20
6.679427647507205
 10
2.230253183167633
 20
6.679427647507205
 10
2.230253183167633
 20
0.2558338439046475
 10
2.276716791150306
 20
0.1396748239480212
 10
2.404491713102516
 20
0.0699794119739545
 10
2.648425655011579
 20
0.0118999019956982
 10
3.043366322864131
 20
0.0002840000000015
 10
3.438306990716683
 20
0.0118999019956982
 10
3.682240932625746
 20
0.0699794119739545
 10
3.810015854577955
 20
0.1396748239480212
 10
3.856479462560628
 20
0.2558338439046475
 10
3.856479462560628
 20
6.679427647507205
 10
5.842798703819312
 20
6.679427647507205
 10
5.947341821780242
 20
6.714275353494181
 10
6.017037233754309
 20
6.830434373450808
 10
6.075116743732565
 20
7.027904707377084
  0
LWPOLYLINE
  5
100C4
330
1F
100
AcDbEntity
  8
R
100
AcDbPolyline
 90
       12
 70
     1
 43
0.0
 10
3.054982224859827
 20
6.691043549502787
 10
3.078214028851107
 20
6.691043549502787
 10
3.635777324643072
 20
6.307718783645932
 10
3.821631756573652
 20
5.645612369893037
 10
3.728704540608419
 20
5.180976290066418
 10
3.473154696703773
 20
4.820883328200843
 10
3.043366322864131
 20
4.588565288287477
 10
2.439339419089606
 20
4.507253974317941
 10
1.614610377397412
 20
4.507253974317941
 10
1.614610377397412
 20
6.760738961476854
 10
2.346412203124259
 20
6.760738961476854
 10
2.776200576963902
 20
6.73750715748546
  0
LWPOLYLINE
  5
100C5
330
1F
100
AcDbEntity
  8
R
100
AcDbPolyline
 90
       50
 70
     1
 43
0.0
 10
4.948374250153165
 20
7.283454551281729
 10
4.890294740174795
 20
7.341534061259985
 10
4.28626783640027
 20
7.724858827116954
 10
4.123645208460971
 20
7.782938337095324
 10
3.4266910887211
 20
7.957176867030206
 10
3.054982224859827
 20
7.9804086710216
 10
2.543882537050535
 20
7.992024573017297
 10
0.4762519818223154
 20
7.992024573017297
 10
0.1393908239480197
 20
7.87586555306067
 10
0.0
 20
7.480924885208005
 10
0.0
 20
0.2558338439046466
 10
0.0348477059870902
 20
0.1396748239480203
 10
0.1742385299349962
 20
0.0699794119739536
 10
0.4181724718439455
 20
0.0118999019956973
 10
0.8131131396966111
 20
0.0002840000000006
 10
1.196437905553466
 20
0.0118999019956973
 10
1.451987749458112
 20
0.0699794119739536
 10
1.579762671410435
 20
0.1396748239480203
 10
1.614610377397412
 20
0.2558338439046466
 10
1.614610377397412
 20
3.287584264773081
 10
2.12571006520659
 20
3.287584264773081
 10
2.578730243037512
 20
3.206272950803431
 10
2.927207302907504
 20
2.973954910890178
 10
3.194373048807733
 20
2.579014243037513
 10
3.449922892712379
 20
2.044682751236941
 10
4.158492914447947
 20
0.2674497459003433
 10
4.2281883264219
 20
0.1396748239480203
 10
4.355963248374223
 20
0.0583635099783706
 10
4.588281288287476
 20
0.0118999019956973
 10
5.006453760131421
 20
0.0002840000000006
 10
5.49432164394932
 20
0.0118999019956973
 10
5.761487389849662
 20
0.0583635099783706
 10
5.877646409806289
 20
0.1280589219523236
 10
5.900878213797682
 20
0.2442179419089499
 10
5.866030507810706
 20
0.4184564718439461
 10
5.749871487853966
 20
0.7553176297182418
 10
5.076149172105488
 20
2.32346439913298
 10
4.843831132192122
 20
2.834564086942159
 10
4.576665386291893
 20
3.229504754794824
 10
4.28626783640027
 20
3.53151820668203
 10
3.949406678525975
 20
3.740604442604003
 10
3.961022580521671
 20
3.740604442604003
 10
4.599897190283173
 20
4.042617894491322
 10
5.087765074101185
 20
4.495638072322244
 10
5.38977852598839
 20
5.088049074101072
 10
5.401394427984087
 20
5.111280878092465
 10
5.49432164394932
 20
5.808234997832336
 10
5.482705741953737
 20
5.970857625771636
 10
5.343314918005717
 20
6.65619584351581
 10
5.33169901601002
 20
6.702659451498484
  0
LWPOLYLINE
  5
100C6
330
1F
100
AcDbEntity
  8
A
100
AcDbPolyline
 90
        3
 70
     1
 43
0.0
 10
2.422729975861124
 20
3.084305979848956
 10
3.549472469440637
 20
6.476149362582966
 10
4.676214963020037
 20
3.084305979848956
  0
LWPOLYLINE
  5
100C7
330
1F
100
AcDbEntity
  8
A
100
AcDbPolyline
 90
       29
 70
     1
 43
0.0
 10
4.745910374994104
 20
7.684203170132129
 10
4.664599061024454
 20
7.870057602062822
 10
4.490360531089458
 20
7.974600720023751
 10
4.153499373215162
 20
8.021064328006425
 10
3.572704273431917
 20
8.032680230002121
 10
3.073220487618322
 20
8.021064328006425
 10
2.771207035731116
 20
7.974600720023751
 10
2.6202003097874
 20
7.881673504058405
 10
2.527273093822167
 20
7.707434974123409
 10
0.0763177727368642
 20
0.6449665607593502
 10
-0.016609443228369
 20
0.2964895008894715
 10
0.029854164754191
 20
0.0990191669631955
 10
0.2505563026718605
 20
0.006091950997849
 10
0.6919605785070857
 20
-0.0055239509978477
 10
1.121748952346728
 20
0.006091950997849
 10
1.377298796251374
 20
0.0525555589805222
 10
1.505073718203697
 20
0.145482774945755
 10
1.563153228181953
 20
0.2848735988937747
 10
2.062637013995548
 20
1.841404466312817
 10
5.059539728877006
 20
1.841404466312817
 10
5.593871220677578
 20
0.2384099909111015
 10
5.651950730655948
 20
0.1106350689587785
 10
5.77972565260827
 20
0.0409396569848255
 10
6.046891398508499
 20
0.006091950997849
 10
6.534759282326398
 20
-0.0055239509978477
 10
7.011011264148713
 20
0.006091950997849
 10
7.243329304061966
 20
0.0874032649674987
 10
7.301408814040336
 20
0.2848735988937747
 10
7.208481598074989
 20
0.6333506587637672
  0
LWPOLYLINE
  5
100C8
330
1F
100
AcDbEntity
  8
P
100
AcDbPolyline
 90
       11
 70
     1
 43
0.0
 10
1.614610377397299
 20
4.042617894491322
 10
1.614610377397299
 20
6.749123059481157
 10
2.311564497137169
 20
6.749123059481157
 10
2.799432380955067
 20
6.71427535349418
 10
3.252452558785989
 20
6.551652725554881
 10
3.612545520651565
 20
6.145096155706632
 10
3.763552246595281
 20
5.459757937962344
 10
3.670625030629936
 20
4.890578740174796
 10
3.415075186725289
 20
4.449174464339572
 10
2.996902714881343
 20
4.147161012452251
 10
2.346412203124145
 20
4.042617894491322
  0
LWPOLYLINE
  5
100C9
330
1F
100
AcDbEntity
  8
P
100
AcDbPolyline
 90
       32
 70
     1
 43
0.0
 10
1.614610377397299
 20
2.799716380955183
 10
2.28833269314589
 20
2.799716380955183
 10
3.008518616877041
 20
2.846179988937855
 10
3.659009128634239
 20
2.985570812885876
 10
4.053949796486904
 20
3.148193440825175
 10
4.634744896270149
 20
3.519902304686334
 10
4.878678838179098
 20
3.77545214859098
 10
5.238771800044674
 20
4.391094954361201
 10
5.378162623992694
 20
4.844115132192124
 10
5.447858035966647
 20
5.575916957919084
 10
5.447858035966647
 20
5.77338729184536
 10
5.308467212018627
 20
6.458725509589534
 10
5.285235408027347
 20
6.540036823559184
 10
4.925142446161772
 20
7.144063727333709
 10
4.867062936183402
 20
7.202143237312079
 10
4.297883738395853
 20
7.620315709156024
 10
4.239804228417484
 20
7.655163415143001
 10
3.577697814664588
 20
7.887481455056253
 10
2.962055008894367
 20
7.9804086710216
 10
2.427723517093796
 20
7.992024573017298
 10
0.5459473937961546
 20
7.992024573017298
 10
0.1626226279392995
 20
7.852633749069277
 10
0.0
 20
7.422845375229748
 10
0.0
 20
0.255833843904647
 10
0.0464636079825595
 20
0.1396748239480207
 10
0.1742385299348825
 20
0.069979411973954
 10
0.4181724718438317
 20
0.0118999019956977
 10
0.8131131396964975
 20
0.000284000000001
 10
1.196437905553352
 20
0.0118999019956977
 10
1.451987749457998
 20
0.069979411973954
 10
1.579762671410321
 20
0.1396748239480207
 10
1.614610377397299
 20
0.255833843904647
  0
LWPOLYLINE
  5
100CA
330
1F
100
AcDbEntity
  8
O
100
AcDbPolyline
 90
       32
 70
     1
 43
0.0
 10
2.081318876901051
 20
2.091146359219614
 10
1.976775758940121
 20
2.28861669314589
 10
1.756073621022452
 20
2.985570812885761
 10
1.686378209048499
 20
3.415359186725404
 10
1.651530503061522
 20
4.147161012452251
 10
1.663146405057105
 20
4.518869876313524
 10
1.756073621022452
 20
5.215823996053395
 10
1.814153131000822
 20
5.459757937962344
 10
2.104550680892331
 20
6.087016645728262
 10
2.209093798853374
 20
6.238023371671865
 10
2.755041192649643
 20
6.691043549502787
 10
3.022206938549872
 20
6.807202569459413
 10
3.742392862281022
 20
6.911745687420456
 10
4.079254020155318
 20
6.90012978542476
 10
4.72974453191263
 20
6.714275353494067
 10
4.869135355860536
 20
6.632964039524417
 10
5.357003239678434
 20
6.145096155706518
 10
5.473162259635174
 20
5.959241723775939
 10
5.69386439755273
 20
5.273903506031651
 10
5.751943907530986
 20
4.855731034187819
 10
5.786791613518077
 20
4.123929208460858
 10
5.77517571152238
 20
3.740604442604003
 10
5.69386439755273
 20
3.043650322864131
 10
5.624168985578777
 20
2.788100478959485
 10
5.345387337682851
 20
2.160841771193567
 10
5.229228317726111
 20
2.009835045249964
 10
4.694896825925539
 20
1.556814867419043
 10
4.42773108002531
 20
1.440655847462416
 10
3.707545156294046
 20
1.336112729501373
 10
3.359068096424167
 20
1.34772863149707
 10
2.708577584666969
 20
1.533583063427649
 10
2.580802662714646
 20
1.603278475401716
  0
LWPOLYLINE
  5
100CB
330
1F
100
AcDbEntity
  8
O
100
AcDbPolyline
 90
       46
 70
     1
 43
0.0
 10
6.95999771508015
 20
1.765901103341015
 10
7.238779362976075
 20
2.439623419089493
 10
7.331706578941422
 20
2.776484576963789
 10
7.447865598898048
 20
3.461822794707963
 10
7.482713304885138
 20
4.216856424426204
 10
7.471097402889441
 20
4.646644798265847
 10
7.401401990915375
 20
5.366830721996998
 10
7.250395264971772
 20
6.005705331758612
 10
7.238779362976075
 20
6.040553037745589
 10
6.948381813084453
 20
6.714275353494067
 10
6.553441145231901
 20
7.260222747290335
 10
6.042341457422609
 20
7.690011121129977
 10
5.403466847661107
 20
8.00364047501288
 10
5.217612415730528
 20
8.061719984991136
 10
4.543890099981937
 20
8.201110808939156
 10
3.800472372259392
 20
8.247574416921829
 10
3.498458920372187
 20
8.235958514926132
 10
2.778272996640922
 20
8.1430312989609
 10
2.139398386879421
 20
7.957176867030206
 10
2.081318876901051
 20
7.92232916104323
 10
1.454060169135133
 20
7.585468003168934
 10
0.9313445793302577
 20
7.120831923342315
 10
0.8732650693518877
 20
7.051136511368362
 10
0.4899403034950325
 20
6.481957313580814
 10
0.2111586555989931
 20
5.808234997832223
 10
0.1182314396337603
 20
5.506221545945017
 10
0.0020724196771338
 20
4.820883328200729
 10
-0.0443911883055392
 20
4.065849698482602
 10
-0.0327752863099562
 20
3.601213618655983
 10
0.0485360276596938
 20
2.881027694924832
 10
0.1879268516077133
 20
2.253768987158914
 10
0.2111586555989931
 20
2.20730537917624
 10
0.4899403034950325
 20
1.533583063427649
 10
0.8848809713475845
 20
0.9760197676357976
 10
1.395980659156876
 20
0.5578472957918521
 10
2.034855268918378
 20
0.2442179419089499
 10
2.232325602844654
 20
0.1861384319305799
 10
2.894432016597549
 20
0.0467476079826739
 10
3.64946564631579
 20
0.0002840000000006
 10
3.951479098203109
 20
0.0002840000000006
 10
4.67166502193426
 20
0.0932112159652334
 10
5.310539631695761
 20
0.2906815498916231
 10
5.368619141674131
 20
0.3139133538829029
 10
5.995877849440049
 20
0.6507745117571986
 10
6.506977537249228
 20
1.115410591583817
 10
6.576672949223294
 20
1.196721905553467
  0
LWPOLYLINE
  5
100CC
330
1F
100
AcDbEntity
  8
I
100
AcDbPolyline
 90
       18
 70
     1
 43
0.0
 10
3.311731737700917
 20
7.771326435099626
 10
3.276884031713827
 20
7.887485455056252
 10
3.149109109761618
 20
7.968796769025902
 10
2.893559265856972
 20
8.015260377008575
 10
2.510234500000003
 20
8.038492180999969
 10
2.115293832147451
 20
8.015260377008575
 10
1.871359890238502
 20
7.968796769025902
 10
1.731969066290482
 20
7.887485455056252
 10
1.697121360303505
 20
7.771326435099626
 10
1.697121360303505
 20
0.2558378439046454
 10
1.731969066290482
 20
0.1396788239480191
 10
1.871359890238502
 20
0.0699834119739524
 10
2.115293832147451
 20
0.0119039019956961
 10
2.510234500000003
 20
0.0002879999999994
 10
2.893559265856972
 20
0.0119039019956961
 10
3.149109109761618
 20
0.0699834119739524
 10
3.276884031713827
 20
0.1396788239480191
 10
3.311731737700917
 20
0.2558378439046454
  0
LWPOLYLINE
  5
100CD
330
1F
100
AcDbEntity
  8
U
100
AcDbPolyline
 90
       47
 70
     1
 43
0.0
 10
1.614610377397412
 20
7.875865553060557
 10
1.579762671410435
 20
7.992024573017183
 10
1.440371847462416
 20
8.073335886986833
 10
1.196437905553466
 20
8.119799494969506
 10
0.8131131396964975
 20
8.1430312989609
 10
0.4181724718439455
 20
8.119799494969506
 10
0.1742385299349962
 20
8.073335886986833
 10
0.0348477059869765
 20
7.992024573017183
 10
0.0
 20
7.875865553060557
 10
0.0
 20
3.032034420868435
 10
0.0464636079826732
 20
2.358312105119843
 10
0.2207021379176695
 20
1.707821593362645
 10
0.4181724718439455
 20
1.2896491215187
 10
0.8479608456835876
 20
0.7553176297181281
 10
1.196437905553466
 20
0.4881518838178991
 10
1.858544319306361
 20
0.1861384319305799
 10
2.462571223080886
 20
0.0467476079826739
 10
3.20598895080343
 20
0.0002840000000006
 10
3.217604852799127
 20
0.0002840000000006
 10
3.961022580521672
 20
0.0467476079826739
 10
4.611513092278869
 20
0.2093702359219733
 10
5.087765074101071
 20
0.4184564718438324
 10
5.645328369893035
 20
0.8133971396964981
 10
5.947341821780242
 20
1.161874199566377
 10
6.284202979654538
 20
1.789132907332295
 10
6.435209705598139
 20
2.36992800711554
 10
6.493289215576509
 20
3.101729832842388
 10
6.493289215576509
 20
7.875865553060557
 10
6.458441509589534
 20
7.992024573017183
 10
6.330666587637211
 20
8.073335886986833
 10
6.086732645728262
 20
8.119799494969506
 10
5.703407879871293
 20
8.1430312989609
 10
5.320083114014438
 20
8.119799494969506
 10
5.064533270109792
 20
8.073335886986833
 10
4.936758348157468
 20
7.992024573017183
 10
4.901910642170492
 20
7.875865553060557
 10
4.901910642170492
 20
3.090113930846805
 10
4.901910642170492
 20
3.032034420868435
 10
4.785751622213866
 20
2.34669620312426
 10
4.460506366335153
 20
1.789132907332295
 10
3.949406678525975
 20
1.440655847462416
 10
3.2640684607818
 20
1.324496827505676
 10
2.590346145033209
 20
1.440655847462416
 10
2.067630555228334
 20
1.777517005336598
 10
1.730769397354038
 20
2.358312105119843
 10
1.695921691367062
 20
2.462855223080886
 10
1.614610377397412
 20
3.183041146812037
  0
LWPOLYLINE
  5
100CE
330
1F
100
AcDbEntity
  8
J
100
AcDbPolyline
 90
       38
 70
     1
 43
0.0
 10
3.287300264772966
 20
7.875869553060669
 10
3.25245255878599
 20
7.992028573017295
 10
3.113061734838084
 20
8.061723984991248
 10
2.869127792929135
 20
8.119803494969618
 10
2.474187125076469
 20
8.131419396965315
 10
2.090862359219614
 20
8.119803494969618
 10
1.835312515314968
 20
8.061723984991248
 10
1.707537593362645
 20
7.992028573017295
 10
1.672689887375668
 20
7.875869553060669
 10
1.672689887375668
 20
2.404779713102629
 10
1.626226279392995
 20
1.91691182928473
 10
1.498451357440672
 20
1.614898377397411
 10
1.289365121518699
 20
1.452275749458112
 10
0.998967571627077
 20
1.405812141475439
 10
0.7085700217354538
 20
1.452275749458112
 10
0.4994837858134817
 20
1.533587063427762
 10
0.325245255878599
 20
1.614898377397411
 10
0.197470333926276
 20
1.649746083384388
 10
0.1045431179609295
 20
1.626514279393108
 10
0.0348477059869765
 20
1.510355259436482
 10
0.011615901995583
 20
1.278037219523116
 10
0.0
 20
0.9179442576574264
 10
0.0
 20
0.650778511757311
 10
0.0232318039912798
 20
0.4881558838180116
 10
0.069695411973953
 20
0.3719968638612716
 10
0.1277749219522093
 20
0.2906855498916219
 10
0.2787816478959257
 20
0.1977583339263891
 10
0.5459473937961548
 20
0.1048311179610426
 10
0.8711926496747537
 20
0.0351357059870896
 10
1.242901513536026
 20
0.0002879999999994
 10
1.556530867419042
 20
0.0119039019956961
 10
2.20702137917624
 20
0.1629106279392989
 10
2.299948595141586
 20
0.2093742359219721
 10
2.845895988937741
 20
0.6275467077659176
 10
2.915591400911808
 20
0.7204739237312641
 10
3.194373048807734
 20
1.370964435488462
 10
3.240836656790407
 20
1.614898377397411
 10
3.287300264772966
 20
2.346700203124145
  0
LWPOLYLINE
  5
100CF
330
1F
100
AcDbEntity
  8
H
100
AcDbPolyline
 90
       40
 70
     1
 43
0.0
 10
1.614610377397411
 20
7.771322435099627
 10
1.579762671410436
 20
7.887481455056253
 10
1.451987749458113
 20
7.968792769025903
 10
1.208053807549163
 20
8.015256377008576
 10
0.8131131396966111
 20
8.03848818099997
 10
0.4297883738396422
 20
8.015256377008576
 10
0.1742385299349962
 20
7.968792769025903
 10
0.0464636079826732
 20
7.887481455056253
 10
0.0
 20
7.771322435099627
 10
0.0
 20
0.2558338439046466
 10
0.0464636079826732
 20
0.1396748239480203
 10
0.1742385299349962
 20
0.0699794119739536
 10
0.4297883738396422
 20
0.0118999019956973
 10
0.8131131396966111
 20
0.0002840000000006
 10
1.208053807549163
 20
0.0118999019956973
 10
1.451987749458113
 20
0.0699794119739536
 10
1.579762671410436
 20
0.1396748239480203
 10
1.614610377397411
 20
0.2558338439046466
 10
1.614610377397411
 20
3.473438696703774
 10
4.58828128828759
 20
3.473438696703774
 10
4.58828128828759
 20
0.2558338439046466
 10
4.634744896270263
 20
0.1396748239480203
 10
4.762519818222472
 20
0.0699794119739536
 10
5.006453760131421
 20
0.0118999019956973
 10
5.401394427984087
 20
0.0002840000000006
 10
5.796335095836639
 20
0.0118999019956973
 10
6.040269037745588
 20
0.0699794119739536
 10
6.168043959697911
 20
0.1396748239480203
 10
6.202891665684888
 20
0.2558338439046466
 10
6.202891665684888
 20
7.771322435099627
 10
6.168043959697911
 20
7.887481455056253
 10
6.040269037745588
 20
7.968792769025903
 10
5.796335095836639
 20
8.015256377008576
 10
5.401394427984087
 20
8.03848818099997
 10
5.006453760131421
 20
8.015256377008576
 10
4.762519818222472
 20
7.968792769025903
 10
4.634744896270263
 20
7.887481455056253
 10
4.58828128828759
 20
7.771322435099627
 10
4.58828128828759
 20
4.855731034187819
 10
1.614610377397411
 20
4.855731034187819
  0
LWPOLYLINE
  5
100D0
330
1F
100
AcDbEntity
  8
G
100
AcDbPolyline
 90
       80
 70
     1
 43
0.0
 10
2.543882537050649
 20
6.342678489632795
 10
3.147909440825174
 20
6.714387353494067
 10
3.473154696703773
 20
6.830546373450693
 10
4.193340620434924
 20
6.911857687420457
 10
4.460506366335267
 20
6.911857687420457
 10
5.145844584079441
 20
6.807314569459414
 10
5.169076388070835
 20
6.795698667463717
 10
5.842798703819312
 20
6.563380627550464
 10
6.319050685641628
 20
6.319446685641515
 10
6.57460052954616
 20
6.214903567680472
 10
6.667527745511507
 20
6.238135371671865
 10
6.73722315748546
 20
6.354294391628492
 10
6.783686765468133
 20
6.551764725554768
 10
6.795302667463829
 20
6.865394079437784
 10
6.760454961476853
 20
7.330030159264289
 10
6.644295941520227
 20
7.573964101173238
 10
6.342282489632908
 20
7.771434435099628
 10
5.819566899828033
 20
7.992136573017182
 10
5.784719193841056
 20
8.015368377008578
 10
5.076149172105488
 20
8.16637510295218
 10
4.867062936183515
 20
8.201222808939157
 10
4.135261110456667
 20
8.236070514926134
 10
3.798399952582372
 20
8.22445461293055
 10
3.089829930846804
 20
8.131527396965204
 10
2.439339419089606
 20
7.94567296503451
 10
2.288332693146003
 20
7.887593455056254
 10
1.661073985380085
 20
7.550732297181958
 10
1.126742493579513
 20
7.120943923342316
 10
1.022199375619152
 20
7.004784903386258
 10
0.6040269037746384
 20
6.447221607593838
 10
0.2903975498916224
 20
5.79673109583664
 10
0.1858544319306929
 20
5.459869937962345
 10
0.0464636079826732
 20
4.77453172021817
 10
0.0
 20
4.031113992495626
 10
0.0116159019956967
 20
3.705868736617027
 10
0.0929272159653464
 20
2.985682812885762
 10
0.2787816478960394
 20
2.346808203124261
 10
0.3136293538830159
 20
2.242265085163218
 10
0.6388746097616149
 20
1.603390475401716
 10
1.068662983601143
 20
1.069058983601145
 10
1.149974297570907
 20
0.9993635716270779
 10
1.695921691367061
 20
0.5928070017788292
 10
2.346412203124259
 20
0.2791776478959269
 10
2.636809753015882
 20
0.1862504319305805
 10
3.310532068764473
 20
0.0468596079826744
 10
4.053949796487017
 20
0.0003960000000012
 10
4.704440308244215
 20
0.0352437059869777
 10
5.343314918005717
 20
0.1281709219523242
 10
5.947341821780356
 20
0.2791776478959269
 10
6.446825607593951
 20
0.4418002758352264
 10
6.71399135349418
 20
0.6625024137528959
 10
6.77207086347255
 20
0.9761317676357981
 10
6.77207086347255
 20
4.147273012452252
 10
6.748839059481156
 20
4.367975150369808
 10
6.655911843515923
 20
4.530597778309107
 10
6.5281369215636
 20
4.635140896270149
 10
6.342282489632908
 20
4.669988602257127
 10
3.659009128634352
 20
4.669988602257127
 10
3.566081912669119
 20
4.635140896270149
 10
3.484770598699469
 20
4.530597778309107
 10
3.449922892712494
 20
4.344743346378528
 10
3.426691088721099
 20
4.054345796486906
 10
3.484770598699469
 20
3.589709716660287
 10
3.659009128634352
 20
3.438702990716684
 10
5.169076388070835
 20
3.438702990716684
 10
5.169076388070835
 20
1.59177457340602
 10
4.669592602257239
 20
1.417536043471023
 10
4.135261110456667
 20
1.34784063149707
 10
3.798399952582372
 20
1.37107243548835
 10
3.136293538829477
 20
1.53369506342765
 10
2.903975498916224
 20
1.638238181388693
 10
2.346412203124259
 20
2.056410653232638
 10
2.16055777119368
 20
2.288728693145891
 10
1.846928417310664
 20
2.927603302907392
 10
1.719153495358456
 20
3.392239382734011
 10
1.661073985380085
 20
4.135657110456555
 10
1.684305789371364
 20
4.600293190283174
 10
1.835312515315081
 20
5.274015506031652
 10
1.963087437267405
 20
5.576028957918971
 10
2.346412203124259
 20
6.145208155706519
  0
LWPOLYLINE
  5
100D1
330
1F
100
AcDbEntity
  8
F
100
AcDbPolyline
 90
       33
 70
     1
 43
0.0
 10
4.461070366335153
 20
7.329918159264402
 10
4.449454464339456
 20
7.643547513147304
 10
4.3913749543612
 20
7.852633749069277
 10
4.31006364039155
 20
7.968792769025903
 10
4.217136424426204
 20
7.992024573017297
 10
0.4768159818222018
 20
7.992024573017297
 10
0.139954823947906
 20
7.87586555306067
 10
0.000564
 20
7.480924885208005
 10
0.000564
 20
0.2674497459003433
 10
0.0354117059869765
 20
0.1512907259436034
 10
0.1631866279392995
 20
0.0699794119739536
 10
0.4187364718439455
 20
0.0118999019956973
 10
0.8020612377008007
 20
0.0002840000000006
 10
1.197001905553466
 20
0.0118999019956973
 10
1.452551749458112
 20
0.0699794119739536
 10
1.580326671410322
 20
0.1512907259436034
 10
1.615174377397412
 20
0.2674497459003433
 10
1.615174377397412
 20
3.229504754794824
 10
4.054513796486904
 20
3.229504754794824
 10
4.159056914447947
 20
3.275968362777384
 10
4.240368228417597
 20
3.380511480738427
 10
4.286831836400157
 20
3.5895977166604
 10
4.298447738395853
 20
3.891611168547605
 10
4.286831836400157
 20
4.205240522430621
 10
4.240368228417597
 20
4.402710856356897
 10
4.159056914447947
 20
4.507253974317941
 10
4.054513796486904
 20
4.53048577830922
 10
1.615174377397412
 20
4.53048577830922
 10
1.615174377397412
 20
6.679427647507204
 10
4.217136424426204
 20
6.679427647507204
 10
4.31006364039155
 20
6.71427535349418
 10
4.3913749543612
 20
6.81881847145511
 10
4.449454464339456
 20
7.027904707377083
  0
LWPOLYLINE
  5
100D2
330
1F
100
AcDbEntity
  8
D
100
AcDbPolyline
 90
       19
 70
     1
 43
0.0
 10
1.602994475401715
 20
6.691043549502787
 10
2.427723517093909
 20
6.691043549502787
 10
2.996902714881457
 20
6.65619584351581
 10
3.624161422647375
 20
6.493573215576511
 10
3.844863560564931
 20
6.389030097615581
 10
4.379195052365503
 20
5.936009919784659
 10
4.518585876313523
 20
5.750155487853966
 10
4.797367524209449
 20
5.099664976096768
 10
4.867062936183401
 20
4.762803818222473
 10
4.925142446161772
 20
4.042617894491322
 10
4.901910642170378
 20
3.496670500695053
 10
4.785751622213752
 20
2.83456408694216
 10
4.681208504252822
 20
2.555782439046233
 10
4.33273144438283
 20
1.974987339262988
 10
4.17010881644353
 20
1.812364711323688
 10
3.566081912669006
 20
1.452271749458113
 10
3.194373048807733
 20
1.34772863149707
 10
2.450955321085189
 20
1.278033219523117
 10
1.602994475401715
 20
1.278033219523117
  0
LWPOLYLINE
  5
100D3
330
1F
100
AcDbEntity
  8
D
100
AcDbPolyline
 90
       31
 70
     1
 43
0.0
 10
6.005421331758612
 20
6.447109607593838
 10
5.564017055923387
 20
6.981441099394409
 10
5.529169349936296
 20
7.004672903385803
 10
4.983221956140142
 20
7.411229473234052
 10
4.321115542387247
 20
7.713242925121371
 10
3.972638482517254
 20
7.8177860430823
 10
3.28730026477308
 20
7.92232916104323
 10
2.509034831063559
 20
7.95717686703032
 10
0.4762519818222017
 20
7.95717686703032
 10
0.139390823947906
 20
7.841017847073694
 10
0.0
 20
7.446077179221028
 10
0.0
 20
0.511383687809293
 10
0.139390823947906
 20
0.128058921952324
 10
0.4762519818222017
 20
0.000284000000001
 10
2.369644007115539
 20
0.000284000000001
 10
2.845895988937855
 20
0.0118999019956977
 10
3.566081912669006
 20
0.0932112159653475
 10
4.193340620434924
 20
0.2326020399133673
 10
4.286267836400157
 20
0.255833843904647
 10
4.936758348157468
 20
0.5462313937962695
 10
5.49432164394932
 20
0.9527879636445182
 10
5.57563295791897
 20
1.034099277614168
 10
5.993805429762915
 20
1.568430769414739
 10
6.319050685641514
 20
2.230537183167634
 10
6.446825607593837
 20
2.637093753015884
 10
6.562984627550463
 20
3.322431970760058
 10
6.59783233353744
 20
4.100697404469578
 10
6.59783233353744
 20
4.402710856356897
 10
6.51652101956779
 20
5.122896780088162
 10
6.342282489632908
 20
5.761771389849663
 10
6.319050685641514
 20
5.79661909583664
  0
LWPOLYLINE
  5
100D4
330
1F
100
AcDbEntity
  8
S
100
AcDbPolyline
 90
       75
 70
     1
 43
0.0
 10
4.703666447939629
 20
7.364765865251378
 10
4.680434643948349
 20
7.550620297181958
 10
4.645586937961372
 20
7.655163415142887
 10
4.564275623991723
 20
7.75970653310393
 10
4.308725780087077
 20
7.92232916104323
 10
3.878937406247548
 20
8.08495178898253
 10
3.344605914446863
 20
8.201110808939156
 10
2.775426716659315
 20
8.247574416921829
 10
2.438565558785019
 20
8.224342612930549
 10
1.753227341040844
 20
8.096567690978226
 10
1.497677497136198
 20
8.015256377008576
 10
0.9052664953573704
 20
7.678395219134281
 10
0.7310279654223741
 20
7.527388493190678
 10
0.3244713955741254
 20
6.958209295403016
 10
0.2083123756174992
 20
6.667811745511393
 10
0.1153851596521527
 20
5.947625821780242
 10
0.1153851596521527
 20
5.76177138984955
 10
0.270417105269491
 20
5.070090401710367
 10
0.6497166514527244
 20
4.47240626833085
 10
1.184048143253296
 20
4.031001992495625
 10
1.799690949023518
 20
3.694140834621329
 10
2.426949656789436
 20
3.415359186725404
 10
2.961281148590007
 20
3.124961636833781
 10
3.344605914446863
 20
2.788100478959485
 10
3.495612640390579
 20
2.31184849713717
 10
3.402685424425233
 20
1.893676025293338
 10
3.158751482516283
 20
1.568430769414739
 10
2.763810814663731
 20
1.37096043548835
 10
2.22947932286316
 20
1.301265023514397
 10
2.136552106897813
 20
1.301265023514397
 10
1.451213889153639
 20
1.40580814147544
 10
0.8588028873746971
 20
1.626510279392996
 10
0.4522463175264484
 20
1.858828319306362
 10
0.2083123756174992
 20
1.951755535271595
 10
0.1037692576564559
 20
1.928523731280315
 10
0.0340738456825029
 20
1.800748809327992
 10
-0.0123897623001703
 20
1.591662573406019
 10
-0.024005664295867
 20
1.278033219523117
 10
0.0108420416912232
 20
0.8482448456834746
 10
0.1270010616478494
 20
0.6159268057702221
 10
0.3941668075480784
 20
0.4300723738395291
 10
0.8355710833834173
 20
0.2326020399132531
 10
1.462829791149222
 20
0.0699794119739536
 10
1.520909301127592
 20
0.0583635099782569
 10
2.22947932286316
 20
0.0002840000000006
 10
2.682499500694082
 20
0.0235158039912804
 10
3.367837718438256
 20
0.1629066279393001
 10
3.704698876312552
 20
0.2790656478959264
 10
4.308725780087077
 20
0.6391586097615019
 10
4.529427918004746
 20
0.8482448456834746
 10
4.935984487852995
 20
1.42903994546672
 10
5.075375311800901
 20
1.800748809327992
 10
5.168302527766247
 20
2.520934733059143
 10
5.168302527766247
 20
2.683557360998442
 10
5.028911703818228
 20
3.36889557874273
 10
5.017295801822645
 20
3.380511480738313
 10
4.633971035965676
 20
3.972922482517255
 10
4.088023642169407
 20
4.425942660348177
 10
3.460764934403603
 20
4.762803818222473
 10
2.833506226637684
 20
5.041585466118399
 10
2.287558832841416
 20
5.320367114014324
 10
1.904234066984561
 20
5.668844173884317
 10
1.753227341040844
 20
6.121864351715239
 10
1.822922753014797
 20
6.458725509589534
 10
2.020393086941187
 20
6.73750715748546
 10
2.345638342819786
 20
6.923361589416039
 10
2.810274422646405
 20
6.981441099394409
 10
3.425917228416626
 20
6.90012978542476
 10
3.925401014230108
 20
6.714275353494067
 10
4.285493976095797
 20
6.528420921563487
 10
4.506196114013353
 20
6.435493705598141
 10
4.610739231974396
 20
6.481957313580814
 10
4.668818741952652
 20
6.59811633353744
 10
4.703666447939629
 20
6.795586667463716
 10
4.715282349935439
 20
7.097600119348307
  0
LWPOLYLINE
  5
100D5
330
1F
100
AcDbEntity
  8
B
100
AcDbPolyline
 90
       11
 70
     1
 43
0.0
 10
1.579762671410435
 20
4.681492504252823
 10
1.579762671410435
 20
6.749123059481157
 10
2.404491713102629
 20
6.749123059481157
 10
2.996902714881457
 20
6.679427647507204
 10
3.36861157874273
 20
6.493573215576511
 10
3.589313716660399
 20
6.168327959697912
 10
3.670625030630049
 20
5.738539585858383
 10
3.600929618656096
 20
5.331983016010135
 10
3.391843382734009
 20
4.995121858135839
 10
3.043366322864131
 20
4.762803818222473
 10
2.485803027072279
 20
4.681492504252823
  0
LWPOLYLINE
  5
100D6
330
1F
100
AcDbEntity
  8
B
100
AcDbPolyline
 90
       12
 70
     1
 43
0.0
 10
1.579762671410435
 20
1.231569611540444
 10
1.579762671410435
 20
3.496670500695053
 10
2.543882537050535
 20
3.496670500695053
 10
2.555498439046232
 20
3.496670500695053
 10
3.2640684607818
 20
3.415359186725405
 10
3.717088638612722
 20
3.194657048807848
 10
3.984254384513065
 20
2.83456408694216
 10
4.077181600478298
 20
2.335080301128678
 10
3.984254384513065
 20
1.858828319306362
 10
3.717088638612722
 20
1.521967161432066
 10
3.322147970760056
 20
1.312880925510093
 10
2.752968772972508
 20
1.231569611540444
  0
LWPOLYLINE
  5
100D7
330
1F
100
AcDbEntity
  8
B
100
AcDbPolyline
 90
       33
 70
     1
 43
0.0
 10
5.63371246789734
 20
1.614894377397412
 10
5.656944271888619
 20
1.684589789371365
 10
5.749871487853966
 20
2.381543909111238
 10
5.749871487853966
 20
2.42800751709391
 10
5.63371246789734
 20
3.113345734838199
 10
5.296851310023044
 20
3.694140834621329
 10
4.797367524209562
 20
4.089081502473995
 10
4.170108816443644
 20
4.298167738395968
 10
4.646360798265846
 20
4.5537175823005
 10
4.994837858135838
 20
4.925426446161772
 10
5.203924094057697
 20
5.390062525988391
 10
5.285235408027461
 20
5.936009919784659
 10
5.273619506031764
 20
6.168327959697912
 10
5.099380976096768
 20
6.830434373450807
 10
5.041301466118398
 20
6.946593393407433
 10
4.565049484296196
 20
7.469308983212423
 10
4.3908109543612
 20
7.585468003169048
 10
3.717088638612722
 20
7.841017847073694
 10
3.22922075479471
 20
7.92232916104323
 10
2.474187125076582
 20
7.95717686703032
 10
0.4762519818222018
 20
7.95717686703032
 10
0.1393908239480197
 20
7.841017847073694
 10
0.0
 20
7.446077179221028
 10
0.0
 20
0.511383687809293
 10
0.1393908239480197
 20
0.128058921952324
 10
0.4762519818222018
 20
0.000284000000001
 10
2.590346145033209
 20
0.000284000000001
 10
2.764584674968205
 20
0.000284000000001
 10
3.461538794708076
 20
0.058363509978371
 10
3.508002402690067
 20
0.069979411973954
 10
4.193340620434924
 20
0.2442179419089504
 10
4.832215230196539
 20
0.5578472957919662
 10
5.320083114014437
 20
1.010867473622888
  0
LWPOLYLINE
  5
100D8
330
1F
100
AcDbEntity
  8
V
100
AcDbPolyline
 90
       30
 70
     1
 43
0.0
 10
1.678816407557377
 20
7.736474729112651
 10
1.609120995583424
 20
7.887481455056253
 10
1.492961975626798
 20
7.9804086710216
 10
1.249028033717735
 20
8.026872279004273
 10
0.8076237578826237
 20
8.03848818099997
 10
0.2849081680776351
 20
8.026872279004273
 10
0.0293583241729889
 20
7.945560965034623
 10
-0.0287211858052672
 20
7.748090631108347
 10
0.0525901281642689
 20
7.387997669242658
 10
2.422234135279922
 20
0.3371451578742963
 10
2.480313645258178
 20
0.2093702359219733
 10
2.550009057232245
 20
0.1164430199566269
 10
2.689399881180265
 20
0.0583635099783706
 10
2.875254313110844
 20
0.0118999019956973
 10
3.177267764998163
 20
0.0002840000000006
 10
3.595440236842109
 20
0.0002840000000006
 10
4.09492402265559
 20
0.0118999019956973
 10
4.396937474542909
 20
0.0583635099783706
 10
4.559560102482209
 20
0.1512907259436034
 10
4.640871416451859
 20
0.3139133538829029
 10
7.010515423567398
 20
7.376381767247075
 10
7.103442639532743
 20
7.724858827116954
 10
7.068594933545768
 20
7.933945063038927
 10
6.859508697623795
 20
8.015256377008576
 10
6.41810442178857
 20
8.03848818099997
 10
5.965084243957648
 20
8.026872279004273
 10
5.709534400053002
 20
7.968792769025903
 10
5.581759478100679
 20
7.87586555306067
 10
5.512064066126726
 20
7.701627023125674
 10
3.61290053531954
 20
1.573037960520914
  0
LWPOLYLINE
  5
100D9
330
1F
100
AcDbEntity
  8
C
100
AcDbPolyline
 90
       74
 70
     1
 43
0.0
 10
1.897926360573523
 20
2.881027694924832
 10
1.79338324261248
 20
3.345663774751451
 10
1.746919634629806
 20
4.089081502473995
 10
1.7701514386212
 20
4.565333484296197
 10
1.886310458577826
 20
5.239055800044788
 10
1.967621772547476
 20
5.506221545945017
 10
2.281251126430492
 20
6.110248449719656
 10
2.374178342395725
 20
6.226407469676282
 10
2.920125736191993
 20
6.667811745511507
 10
3.059516560140013
 20
6.73750715748546
 10
3.75647067987977
 20
6.8536661774422
 10
3.802934287862557
 20
6.8536661774422
 10
4.499888407602315
 20
6.749123059481157
 10
5.034219899403
 20
6.516805019567904
 10
5.394312861268577
 20
6.272871077658955
 10
5.626630901181828
 20
6.168327959697912
 10
5.731174019142759
 20
6.203175665684888
 10
5.800869431116711
 20
6.319334685641628
 10
5.847333039099497
 20
6.528420921563601
 10
5.858948941095082
 20
6.842050275446617
 10
5.847333039099497
 20
7.132447825338126
 10
5.824101235108104
 20
7.329918159264402
 10
5.777637627125431
 20
7.469308983212422
 10
5.661478607168806
 20
7.620315709156024
 10
5.371081057277182
 20
7.8177860430823
 10
4.894829075454981
 20
8.026872279004273
 10
4.325649877667432
 20
8.166263102952293
 10
3.686775267905817
 20
8.224342612930549
 10
3.570616247949077
 20
8.212726710934966
 10
2.850430324217926
 20
8.1430312989609
 10
2.199939812460729
 20
7.945560965034623
 10
2.176708008469449
 20
7.933945063038927
 10
1.54944930070353
 20
7.597083905164745
 10
1.026733710898656
 20
7.132447825338126
 10
0.9570382989236794
 20
7.039520609371529
 10
0.5737135330677336
 20
6.481957313580928
 10
0.2717000811804144
 20
5.808234997832336
 10
0.1671569632194849
 20
5.436526133971064
 10
0.039382041267162
 20
4.75118791622689
 10
0.0045343352801855
 20
4.007770188504345
 10
0.0161502372758822
 20
3.61282952065168
 10
0.0858456492498352
 20
2.892643596920529
 10
0.2484682771891347
 20
2.253768987159027
 10
0.2600841791847177
 20
2.218921281171937
 10
0.5504817290763402
 20
1.556814867419156
 10
0.9570382989247026
 20
1.010867473622888
 10
1.444906182742601
 20
0.5810790997832456
 10
2.072164890508406
 20
0.2558338439046466
 10
2.153476204478169
 20
0.2209861379176701
 10
2.81558261823095
 20
0.0583635099783706
 10
3.547384443957911
 20
0.0002840000000006
 10
3.628695757927447
 20
0.0002840000000006
 10
4.325649877667432
 20
0.0699794119740673
 10
4.964524487428934
 20
0.2326020399133668
 10
5.440776469251135
 20
0.4416882758353395
 10
5.696326313155781
 20
0.6275427077659188
 10
5.800869431116711
 20
0.7553176297182418
 10
5.847333039099497
 20
0.8947084536662615
 10
5.882180745086474
 20
1.080562885596841
 10
5.882180745086474
 20
1.336112729501487
 10
5.870564843090778
 20
1.684589789371365
 10
5.835717137103801
 20
1.893676025293338
 10
5.777637627125431
 20
1.986603241258685
 10
5.673094509164502
 20
2.021450947245661
 10
5.452392371246832
 20
1.916907829284732
 10
5.08068350738556
 20
1.696205691367062
 10
4.546352015584988
 20
1.475503553449393
 10
4.499888407602315
 20
1.46388765145381
 10
3.802934287862557
 20
1.370960435488463
 10
3.628695757927447
 20
1.370960435488463
 10
2.954973442178969
 20
1.533583063427763
 10
2.850430324217926
 20
1.580046671410436
 10
2.304482930421771
 20
2.033066849241358
 10
2.176708008469449
 20
2.207305379176354
  0
LWPOLYLINE
  5
100DA
330
1F
100
AcDbEntity
  8
X
100
AcDbPolyline
 90
       40
 70
     1
 43
0.0
 10
3.198019390887683
 20
3.124961636833781
 10
4.684854846332772
 20
0.2442179419089499
 10
4.766166160302422
 20
0.1280589219523236
 10
4.905556984250328
 20
0.0583635099783706
 10
5.161106828154974
 20
0.0118999019956973
 10
5.614127005985896
 20
0.0002840000000006
 10
6.160074399782165
 20
0.0118999019956973
 10
6.427240145682394
 20
0.1048271179610438
 10
6.462087851669484
 20
0.3022974518873198
 10
6.322697027721465
 20
0.6391586097616155
 10
4.42930500242824
 20
4.135545110456555
 10
6.206538007764838
 20
7.387997669242658
 10
6.345928831712857
 20
7.736474729112651
 10
6.31108112572588
 20
7.933945063038927
 10
6.055531281821236
 20
8.026872279004273
 10
5.57927929999892
 20
8.03848818099997
 10
5.149490926159391
 20
8.026872279004273
 10
4.893941082254745
 20
7.9804086710216
 10
4.766166160302422
 20
7.89909735705195
 10
4.684854846332772
 20
7.782938337095324
 10
3.337410214835704
 20
5.146128584079442
 10
1.931886073360265
 20
7.782938337095324
 10
1.862190661386312
 20
7.89909735705195
 10
1.722799837438292
 20
7.9804086710216
 10
1.455634091538063
 20
8.026872279004273
 10
1.00261391370714
 20
8.03848818099997
 10
0.4566665199108719
 20
8.026872279004273
 10
0.201116676006226
 20
7.945560965034623
 10
0.1662689700192495
 20
7.748090631108347
 10
0.3172756959629659
 20
7.387997669242658
 10
2.082892799303866
 20
4.123929208460972
 10
0.1778848720149462
 20
0.6391586097616155
 10
0.0268781460713434
 20
0.3022974518873198
 10
0.0501099500626232
 20
0.1048271179610438
 10
0.2940438919715724
 20
0.0118999019956973
 10
0.7819117757894709
 20
0.0002840000000006
 10
1.234931953620393
 20
0.0118999019956973
 10
1.490481797525038
 20
0.0583635099783706
 10
1.629872621472944
 20
0.1280589219523236
 10
1.711183935442709
 20
0.2442179419089499
  0
LWPOLYLINE
  5
100DB
330
1F
100
AcDbEntity
  8
Z
100
AcDbPolyline
 90
       34
 70
     1
 43
0.0
 10
5.235671818263356
 20
1.150258297570794
 10
5.061433288328473
 20
1.30126502351451
 10
1.739285317568303
 20
1.30126502351451
 10
4.771035738436964
 20
6.13348025371139
 10
4.945274268371733
 20
6.412261901606861
 10
5.049817386332776
 20
6.65619584351581
 10
5.107896896311033
 20
6.888513883429177
 10
5.119512798306729
 20
7.167295531325102
 10
5.119512798306729
 20
7.469308983212422
 10
5.003353778350103
 20
7.829401945077997
 10
4.631644914488831
 20
7.95717686703032
 10
0.240833960127631
 20
7.95717686703032
 10
0.113059038175308
 20
7.933945063038927
 10
0.0317477242056583
 20
7.829401945077997
 10
-0.026331785772598
 20
7.620315709156024
 10
-0.0379476877684084
 20
7.306686355273008
 10
-0.026331785772598
 20
7.0162888053815
 10
0.0317477242056583
 20
6.81881847145511
 10
0.113059038175308
 20
6.71427535349418
 10
0.240833960127631
 20
6.679427647507204
 10
3.295816184987345
 20
6.679427647507204
 10
0.2176021561362376
 20
1.777517005336712
 10
0.043363626201355
 20
1.487119455445089
 10
-0.0727953937553849
 20
1.254801415531837
 10
-0.1192590017379445
 20
1.057331081605561
 10
-0.1424908057293379
 20
0.8250130416921948
 10
-0.1424908057293379
 20
0.5578472957919658
 10
-0.0030999817813182
 20
0.1396748239480203
 10
0.368608882079954
 20
0.0002840000000006
 10
5.061433288328473
 20
0.0002840000000006
 10
5.165976406289403
 20
0.0351317059869771
 10
5.235671818263356
 20
0.1396748239480203
 10
5.282135426246029
 20
0.3371451578742963
 10
5.305367230237309
 20
0.6391586097616155
  0
LWPOLYLINE
  5
100DC
330
1F
100
AcDbEntity
  8
L
100
AcDbPolyline
 90
       22
 70
     1
 43
0.0
 10
1.626226279392995
 20
7.736474729112651
 10
1.579762671410435
 20
7.852633749069277
 10
1.451987749458113
 20
7.933945063038927
 10
1.20805380754905
 20
7.9804086710216
 10
0.8131131396964979
 20
8.003640475012993
 10
0.4181724718439455
 20
7.9804086710216
 10
0.1742385299349963
 20
7.933945063038927
 10
0.0464636079826733
 20
7.852633749069277
 10
0.0
 20
7.736474729112651
 10
0.0
 20
0.5113836878092926
 10
0.1393908239479061
 20
0.1280589219523236
 10
0.4762519818223154
 20
0.0002840000000006
 10
4.123645208460971
 20
0.0002840000000006
 10
4.2281883264219
 20
0.0351317059869771
 10
4.30949964039155
 20
0.1629066279393001
 10
4.355963248374223
 20
0.3719928638612728
 10
4.36757915036992
 20
0.674006315748592
 10
4.355963248374223
 20
0.9876356696314943
 10
4.30949964039155
 20
1.196721905553467
 10
4.2281883264219
 20
1.30126502351451
 10
4.123645208460971
 20
1.336112729501487
 10
1.626226279392995
 20
1.336112729501487
  0
LWPOLYLINE
  5
100DD
330
1F
100
AcDbEntity
  8
K
100
AcDbPolyline
 90
       42
 70
     1
 43
0.0
 10
5.424626231975367
 20
7.202143237312079
 10
5.633712467897226
 20
7.550620297181958
 10
5.691791977875596
 20
7.771322435099627
 10
5.656944271888619
 20
7.87586555306067
 10
5.517553447940713
 20
7.968792769025903
 10
5.262003604036067
 20
8.015256377008576
 10
4.855447034187705
 20
8.03848818099997
 10
4.460506366335153
 20
8.026872279004273
 10
4.216572424426204
 20
7.9804086710216
 10
4.053949796486903
 20
7.89909735705195
 10
3.949406678525861
 20
7.75970653310393
 10
1.614610377397298
 20
4.379479052365618
 10
1.614610377397298
 20
7.771322435099627
 10
1.579762671410322
 20
7.887481455056253
 10
1.451987749457999
 20
7.968792769025903
 10
1.208053807549049
 20
8.015256377008576
 10
0.8131131396964975
 20
8.03848818099997
 10
0.4297883738395285
 20
8.015256377008576
 10
0.1742385299349962
 20
7.968792769025903
 10
0.0464636079826732
 20
7.887481455056253
 10
0.0
 20
7.771322435099627
 10
0.0
 20
0.2674497459003433
 10
0.0464636079826732
 20
0.1512907259436034
 10
0.1742385299349962
 20
0.0699794119739536
 10
0.4297883738395285
 20
0.0118999019956973
 10
0.8131131396964975
 20
0.0002840000000006
 10
1.208053807549049
 20
0.0118999019956973
 10
1.451987749457999
 20
0.0699794119739536
 10
1.579762671410322
 20
0.1512907259436034
 10
1.614610377397298
 20
0.2674497459003433
 10
1.614610377397298
 20
4.042617894491322
 10
4.019102090499928
 20
0.2674497459003433
 10
4.146877012452251
 20
0.1164430199566269
 10
4.402426856356782
 20
0.0235158039913941
 10
4.971606054144445
 20
0.0002840000000006
 10
5.38977852598839
 20
0.0118999019956973
 10
5.656944271888619
 20
0.0699794119739536
 10
5.784719193840942
 20
0.1629066279393001
 10
5.807950997832336
 20
0.2790656478959264
 10
5.784719193840942
 20
0.4068405698482493
 10
5.622096565901643
 20
0.7437017277225451
 10
3.240836656790293
 20
4.344631346378414
  0
LWPOLYLINE
  5
100DE
330
1F
100
AcDbEntity
  8
M
100
AcDbPolyline
 90
       51
 70
     1
 43
0.0
 10
1.521683161432065
 20
6.73750715748546
 10
1.533299063427762
 20
6.73750715748546
 10
3.763552246595281
 20
0.2674497459003433
 10
3.833247658569348
 20
0.1396748239480203
 10
3.995870286508648
 20
0.0699794119739536
 10
4.2281883264219
 20
0.0118999019956973
 10
4.588281288287476
 20
0.0002840000000006
 10
4.948374250153051
 20
0.0118999019956973
 10
5.192308192062114
 20
0.0467476079826739
 10
5.33169901601002
 20
0.1280589219523236
 10
5.41301032997967
 20
0.2674497459003433
 10
7.724574827116953
 20
6.73750715748546
 10
7.736190729112536
 20
6.73750715748546
 10
7.736190729112536
 20
0.2558338439046466
 10
7.771038435099512
 20
0.1396748239480203
 10
7.887197455056253
 20
0.0699794119739536
 10
8.131131396965202
 20
0.0118999019956973
 10
8.491224358830777
 20
0.0002840000000006
 10
8.874549124687746
 20
0.0118999019956973
 10
9.106867164600999
 20
0.0699794119739536
 10
9.234642086553322
 20
0.1396748239480203
 10
9.257873890544602
 20
0.2558338439046466
 10
9.257873890544602
 20
7.353149963255682
 10
9.223026184557625
 20
7.631931611151607
 10
9.106867164600999
 20
7.829401945077997
 10
8.909396830674723
 20
7.957176867030206
 10
8.6189992807831
 20
7.992024573017297
 10
7.53872039518626
 20
7.992024573017297
 10
7.132163825338012
 20
7.957176867030206
 10
6.841766275446503
 20
7.794554239090907
 10
6.621064137528833
 20
7.504156689199398
 10
6.446825607593837
 20
7.062752413364059
 10
4.657976700261429
 20
2.335080301128563
 10
4.634744896270149
 20
2.335080301128563
 10
2.915591400913172
 20
7.074368315356118
 10
2.741352870976811
 20
7.515772591194981
 10
2.497418929067862
 20
7.794554239090907
 10
2.148941869197984
 20
7.957176867030206
 10
1.661073985380085
 20
7.992024573017297
 10
0.6040269037745247
 20
7.992024573017297
 10
0.1626226279392995
 20
7.829401945077997
 10
0.0
 20
7.353149963255682
 10
0.0
 20
0.2558338439046466
 10
0.0348477059869765
 20
0.1396748239480203
 10
0.1510067259436028
 20
0.0699794119739536
 10
0.394940667852552
 20
0.0118999019956973
 10
0.7550336297182412
 20
0.0002840000000006
 10
1.138358395575096
 20
0.0118999019956973
 10
1.370676435488463
 20
0.0699794119739536
 10
1.498451357440785
 20
0.1396748239480203
 10
1.521683161432065
 20
0.2558338439046466
  0
LWPOLYLINE
  5
100DF
330
1F
100
AcDbEntity
  8
N
100
AcDbPolyline
 90
       55
 70
     1
 43
0.0
 10
2.590346145026388
 20
7.167295531337722
 10
2.369644007115653
 20
7.573852101173351
 10
2.137325967202286
 20
7.829401945077997
 10
1.846928417310665
 20
7.957176867030206
 10
1.451987749458113
 20
7.992024573017297
 10
0.580795099783245
 20
7.992024573017297
 10
0.1742385299351099
 20
7.852633749069277
 10
0.0
 20
7.422845375229748
 10
0.0
 20
0.2674497459003433
 10
0.0348477059870902
 20
0.1512907259436034
 10
0.1393908239480197
 20
0.0699794119739536
 10
0.3600929618656892
 20
0.0118999019956973
 10
0.7201859237312647
 20
0.0002840000000006
 10
1.080278885596954
 20
0.0118999019956973
 10
1.312596925510207
 20
0.0699794119739536
 10
1.428755945466833
 20
0.1512907259436034
 10
1.451987749458113
 20
0.2674497459003433
 10
1.451987749458113
 20
4.425942660348177
 10
1.451987749458113
 20
4.63502889627015
 10
1.44037184746253
 20
5.343598918005718
 10
1.44037184746253
 20
5.506221545945017
 10
1.405524141475553
 20
6.214791567680585
 10
1.417140043471135
 20
6.214791567680585
 10
1.451987749458113
 20
6.133480253710935
 10
1.742385299349734
 20
5.471373839958041
 10
1.777233005336712
 20
5.390062525988391
 10
2.090862359219727
 20
4.75118791622689
 10
4.065565698482715
 20
1.034099277614168
 10
4.34434734637864
 20
0.5346154918005723
 10
4.599897190283173
 20
0.2209861379176701
 10
4.890294740174795
 20
0.0699794119739536
 10
5.262003604036182
 20
0.0235158039913941
 10
5.947341821780356
 20
0.0235158039913941
 10
6.179659861693609
 20
0.0583635099783706
 10
6.377130195619885
 20
0.1629066279393001
 10
6.504905117572208
 20
0.3487610598699931
 10
6.55136872555488
 20
0.6043109037745253
 10
6.55136872555488
 20
7.75970653310393
 10
6.5281369215636
 20
7.864249651064974
 10
6.42359380360267
 20
7.957176867030206
 10
6.202891665685001
 20
8.00364047501288
 10
5.85441460581501
 20
8.026872279004273
 10
5.482705741953737
 20
8.00364047501288
 10
5.262003604036182
 20
7.957176867030206
 10
5.134228682083858
 20
7.864249651064974
 10
5.099380976096882
 20
7.75970653310393
 10
5.099380976096882
 20
4.019386090499928
 10
5.099380976096882
 20
3.845147560565046
 10
5.110996878092465
 20
3.124961636833781
 10
5.110996878092465
 20
2.939107204903202
 10
5.134228682083858
 20
2.230537183167634
 10
4.901910642170606
 20
2.718405066985532
 10
4.669592602257239
 20
3.229504754794824
 10
4.414042758352593
 20
3.740604442604003
 10
4.146877012452364
 20
4.251704130413295
  0
LINE
  5
1023A
330
1F
100
AcDbEntity
  8
LETTERS
  6
BYBLOCK
 62
     1
100
AcDbLine
 10
0.0
 20
0.0
 30
0.0
 11
30.0
 21
0.0
 31
0.0
  0
LINE
  5
1023F
330
1F
100
AcDbEntity
  8
LETTERS
  6
BYBLOCK
 62
     1
100
AcDbLine
 10
0.0
 20
0.0
 30
0.0
 11
0.0
 21
10.11398364073393
 31
0.0
  0
ENDSEC
  0
SECTION
  2
OBJECTS
  0
DICTIONARY
  5
C
330
0
100
AcDbDictionary
  3
ACAD_DETAILVIEWSTYLE
350
100EC
  3
ACAD_GROUP
350
D
  3
ACAD_IMAGE_VARS
350
10047
  3
ACAD_MLINESTYLE
350
17
  3
ACAD_SCALELIST
350
101E4
  3
ACAD_SECTIONVIEWSTYLE
350
100ED
  3
ACDBVARIABLEDICTIONARY
350
100E7
  3
APPDATA
350
10045
  3
DWGPROPS
350
10304
  0
DICTIONARY
  5
100A9
330
2
100
AcDbDictionary
280
     1
  3
ACAD_LAYERSTATES
360
100AA
  3
ACLYDICTIONARY
360
10303
  0
DICTIONARY
  5
100EC
102
{ACAD_REACTORS
330
C
102
}
330
C
100
AcDbDictionary
  0
DICTIONARY
  5
D
330
C
100
AcDbDictionary
  0
RASTERVARIABLES
  5
10047
102
{ACAD_REACTORS
330
C
102
}
330
C
100
AcDbRasterVariables
 90
        0
 70
     1
 71
     1
 72
     0
  0
DICTIONARY
  5
17
330
C
100
AcDbDictionary
  3
STANDARD
350
101E3
  0
DICTIONARY
  5
101E4
102
{ACAD_REACTORS
330
C
102
}
330
C
100
AcDbDictionary
  0
DICTIONARY
  5
100ED
102
{ACAD_REACTORS
330
C
102
}
330
C
100
AcDbDictionary
  0
DICTIONARY
  5
100E7
102
{ACAD_REACTORS
330
C
102
}
330
C
100
AcDbDictionary
  0
DICTIONARY
  5
10045
102
{ACAD_REACTORS
330
C
102
}
330
C
100
AcDbDictionary
  0
XRECORD
  5
10304
102
{ACAD_REACTORS
330
C
102
}
330
C
100
AcDbXrecord
  1
DWGPROPS COOKIE
  2

  3

  4

  6

  7

  8
daniele
  9

300
=
301
=
302
=
303
=
304
=
305
=
306
=
307
=
308
=
309
=
 40
0.0
 41
2447892.999999988
 42
2457688.722420035
  1

 90
        0
  0
DICTIONARY
  5
100AA
102
{ACAD_REACTORS
330
100A9
102
}
330
100A9
100
AcDbDictionary
  0
DICTIONARY
  5
10303
102
{ACAD_REACTORS
330
100A9
102
}
330
100A9
100
AcDbDictionary
1001
ACAD
1000
<All
  0
MLINESTYLE
  5
101E3
102
{ACAD_REACTORS
330
17
102
}
330
17
100
AcDbMlineStyle
  2
Standard
 70
     0
  3

 62
   256
 51
90.0
 52
90.0
 71
     2
 49
0.5
 62
   256
  6
BYLAYER
 49
-0.5
 62
   256
  6
BYLAYER
  0
ENDSEC
  0
EOF
